<svg xmlns="http://www.w3.org/2000/svg" width="27" height="21" viewBox="0 0 27 21">
  <metadata><?xpacket begin="﻿" id="W5M0MpCehiHzreSzNTczkc9d"?>
<x:xmpmeta xmlns:x="adobe:ns:meta/" x:xmptk="Adobe XMP Core 5.6-c138 79.159824, 2016/09/14-01:09:01        ">
   <rdf:RDF xmlns:rdf="http://www.w3.org/1999/02/22-rdf-syntax-ns#">
      <rdf:Description rdf:about=""/>
   </rdf:RDF>
</x:xmpmeta>
                                                                                                    
                                                                                                    
                                                                                                    
                                                                                                    
                                                                                                    
                                                                                                    
                                                                                                    
                                                                                                    
                                                                                                    
                                                                                                    
                                                                                                    
                                                                                                    
                                                                                                    
                                                                                                    
                                                                                                    
                                                                                                    
                                                                                                    
                                                                                                    
                                                                                                    
                                                                                                    
                           
<?xpacket end="w"?></metadata>
<defs>
    <style>
      .cls-1 {
        fill: #fff;
        fill-rule: evenodd;
        opacity: 0.8;
      }
    </style>
  </defs>
  <path id="address-card" class="cls-1" d="M5376.5,2474a3.04,3.04,0,0,1,3,3v15a3.04,3.04,0,0,1-3,3h-21a3.04,3.04,0,0,1-3-3v-15a3.04,3.04,0,0,1,3-3h21Zm1.5,18v-15a1.538,1.538,0,0,0-1.5-1.5h-21a1.52,1.52,0,0,0-1.5,1.5v15a1.52,1.52,0,0,0,1.5,1.5h21A1.538,1.538,0,0,0,5378,2492Zm-3.38-6a0.352,0.352,0,0,1,.26.12,0.348,0.348,0,0,1,.12.25v0.75a0.414,0.414,0,0,1-.38.38h-5.25a0.332,0.332,0,0,1-.25-0.12,0.352,0.352,0,0,1-.12-0.26v-0.75a0.348,0.348,0,0,1,.12-0.25,0.332,0.332,0,0,1,.25-0.12h5.25Zm0-3a0.352,0.352,0,0,1,.26.12,0.348,0.348,0,0,1,.12.25v0.75a0.414,0.414,0,0,1-.38.38h-5.25a0.332,0.332,0,0,1-.25-0.12,0.352,0.352,0,0,1-.12-0.26v-0.75a0.348,0.348,0,0,1,.12-0.25,0.332,0.332,0,0,1,.25-0.12h5.25Zm0-3a0.352,0.352,0,0,1,.26.12,0.348,0.348,0,0,1,.12.25v0.75a0.414,0.414,0,0,1-.38.38h-5.25a0.332,0.332,0,0,1-.25-0.12,0.352,0.352,0,0,1-.12-0.26v-0.75a0.348,0.348,0,0,1,.12-0.25,0.332,0.332,0,0,1,.25-0.12h5.25Zm-12.37,6a3.756,3.756,0,1,1,2.65-1.1A3.641,3.641,0,0,1,5362.25,2486Zm0-6a2.253,2.253,0,1,0,1.59.66A2.136,2.136,0,0,0,5362.25,2480Zm2.2,6.75a3.225,3.225,0,0,1,1.43.33,2.786,2.786,0,0,1,1.1.94,3.147,3.147,0,0,1,.52,1.78v1.07a0.411,0.411,0,0,1-.09.26,0.356,0.356,0,0,1-.29.12h-0.75a0.332,0.332,0,0,1-.25-0.12,0.352,0.352,0,0,1-.12-0.26v-1.07a1.625,1.625,0,0,0-.28-0.94,1.438,1.438,0,0,0-1.27-.61,2.9,2.9,0,0,0-.7.14,6.016,6.016,0,0,1-3,0,2.9,2.9,0,0,0-.7-0.14,1.427,1.427,0,0,0-1.27.61,1.625,1.625,0,0,0-.28.94v1.07a0.414,0.414,0,0,1-.38.38h-0.75a0.332,0.332,0,0,1-.25-0.12,0.352,0.352,0,0,1-.12-0.26v-1.07a3.219,3.219,0,0,1,.51-1.78,2.815,2.815,0,0,1,1.11-.94,3.225,3.225,0,0,1,1.43-.33,3.889,3.889,0,0,1,1.05.16,4.215,4.215,0,0,0,1.15.17,4.272,4.272,0,0,0,1.15-.17A3.889,3.889,0,0,1,5364.45,2486.75Z" transform="translate(-5352.5 -2474)"/>
</svg>
