<svg xmlns="http://www.w3.org/2000/svg" width="12.25" height="10.281" viewBox="0 0 12.25 10.281">
  <metadata><?xpacket begin="﻿" id="W5M0MpCehiHzreSzNTczkc9d"?>
<x:xmpmeta xmlns:x="adobe:ns:meta/" x:xmptk="Adobe XMP Core 5.6-c138 79.159824, 2016/09/14-01:09:01        ">
   <rdf:RDF xmlns:rdf="http://www.w3.org/1999/02/22-rdf-syntax-ns#">
      <rdf:Description rdf:about=""/>
   </rdf:RDF>
</x:xmpmeta>
                                                                                                    
                                                                                                    
                                                                                                    
                                                                                                    
                                                                                                    
                                                                                                    
                                                                                                    
                                                                                                    
                                                                                                    
                                                                                                    
                                                                                                    
                                                                                                    
                                                                                                    
                                                                                                    
                                                                                                    
                                                                                                    
                                                                                                    
                                                                                                    
                                                                                                    
                                                                                                    
                           
<?xpacket end="w"?></metadata>
<defs>
    <style>
      .cls-1 {
        fill: #fff;
        fill-rule: evenodd;
      }
    </style>
  </defs>
  <path id="bars" class="cls-1" d="M557.921,330.14a0.326,0.326,0,0,0,.327-0.328v-0.875a0.326,0.326,0,0,0-.327-0.329H546.327a0.326,0.326,0,0,0-.327.329v0.875a0.326,0.326,0,0,0,.327.328h11.594Zm0,4.375a0.326,0.326,0,0,0,.327-0.328v-0.875a0.324,0.324,0,0,0-.327-0.328H546.327a0.324,0.324,0,0,0-.327.328v0.875a0.326,0.326,0,0,0,.327.328h11.594Zm0,4.375a0.324,0.324,0,0,0,.327-0.329v-0.874a0.324,0.324,0,0,0-.327-0.328H546.327a0.312,0.312,0,0,0-.232.1,0.317,0.317,0,0,0-.1.233v0.874a0.324,0.324,0,0,0,.327.329h11.594Z" transform="translate(-546 -328.594)"/>
</svg>
