<svg xmlns="http://www.w3.org/2000/svg" width="20.25" height="20.25" viewBox="0 0 20.25 20.25">
  <metadata><?xpacket begin="﻿" id="W5M0MpCehiHzreSzNTczkc9d"?>
<x:xmpmeta xmlns:x="adobe:ns:meta/" x:xmptk="Adobe XMP Core 5.6-c138 79.159824, 2016/09/14-01:09:01        ">
   <rdf:RDF xmlns:rdf="http://www.w3.org/1999/02/22-rdf-syntax-ns#">
      <rdf:Description rdf:about=""/>
   </rdf:RDF>
</x:xmpmeta>
                                                                                                    
                                                                                                    
                                                                                                    
                                                                                                    
                                                                                                    
                                                                                                    
                                                                                                    
                                                                                                    
                                                                                                    
                                                                                                    
                                                                                                    
                                                                                                    
                                                                                                    
                                                                                                    
                                                                                                    
                                                                                                    
                                                                                                    
                                                                                                    
                                                                                                    
                                                                                                    
                           
<?xpacket end="w"?></metadata>
<defs>
    <style>
      .cls-1 {
        fill: #1d3187;
        fill-rule: evenodd;
        opacity: 0.8;
      }
    </style>
  </defs>
  <path id="box" class="cls-1" d="M5376.54,2643.63a2.214,2.214,0,0,1,.08.59v10.44a1.836,1.836,0,0,1-.56,1.34,1.8,1.8,0,0,1-1.34.55h-16.44a1.878,1.878,0,0,1-1.9-1.89v-10.44a1.448,1.448,0,0,1,.12-0.59l1.97-6.01a1.964,1.964,0,0,1,.7-0.95,1.909,1.909,0,0,1,1.12-.35h12.42a1.909,1.909,0,0,1,1.12.35,1.885,1.885,0,0,1,.69.95Zm-18.9.59h8.23v-6.64h-5.58a0.605,0.605,0,0,0-.39.12,0.65,0.65,0,0,0-.24.32l-1.98,6A0.592,0.592,0,0,0,5357.64,2644.22Zm17.71,10.44v-9.17h-17.71v9.17a0.611,0.611,0,0,0,.18.45,0.618,0.618,0,0,0,.46.18h16.44a0.618,0.618,0,0,0,.46-0.18A0.644,0.644,0,0,0,5375.35,2654.66Zm0-10.44h0a0.421,0.421,0,0,0-.04-0.2l-1.97-6a0.715,0.715,0,0,0-.24-0.32,0.625,0.625,0,0,0-.39-0.12h-5.58v6.64h8.22Z" transform="translate(-5356.38 -2636.31)"/>
</svg>
