<svg xmlns="http://www.w3.org/2000/svg" width="10.75" height="8.25" viewBox="0 0 10.75 8.25">
  <metadata><?xpacket begin="﻿" id="W5M0MpCehiHzreSzNTczkc9d"?>
<x:xmpmeta xmlns:x="adobe:ns:meta/" x:xmptk="Adobe XMP Core 5.6-c138 79.159824, 2016/09/14-01:09:01        ">
   <rdf:RDF xmlns:rdf="http://www.w3.org/1999/02/22-rdf-syntax-ns#">
      <rdf:Description rdf:about=""/>
   </rdf:RDF>
</x:xmpmeta>
                                                                                                    
                                                                                                    
                                                                                                    
                                                                                                    
                                                                                                    
                                                                                                    
                                                                                                    
                                                                                                    
                                                                                                    
                                                                                                    
                                                                                                    
                                                                                                    
                                                                                                    
                                                                                                    
                                                                                                    
                                                                                                    
                                                                                                    
                                                                                                    
                                                                                                    
                                                                                                    
                           
<?xpacket end="w"?></metadata>
<defs>
    <style>
      .cls-1 {
        fill: #1d3187;
        fill-rule: evenodd;
      }
    </style>
  </defs>
  <path id="check" class="cls-1" d="M6938.72,588.112a0.246,0.246,0,0,1,.19-0.071,0.375,0.375,0,0,1,.21.071l0.65,0.679a0.212,0.212,0,0,1,.1.188,0.273,0.273,0,0,1-.1.211l-7.03,7.031a0.261,0.261,0,0,1-.19.07,0.374,0.374,0,0,1-.21-0.07l-3.11-3.14a0.212,0.212,0,0,1-.1-0.188,0.273,0.273,0,0,1,.1-0.211l0.65-.656a0.281,0.281,0,0,1,.21-0.094,0.228,0.228,0,0,1,.19.094l2.27,2.273Z" transform="translate(-6929.13 -588.031)"/>
</svg>
