<svg xmlns="http://www.w3.org/2000/svg" width="11.63" height="11.63" viewBox="0 0 11.63 11.63">
  <metadata><?xpacket begin="﻿" id="W5M0MpCehiHzreSzNTczkc9d"?>
<x:xmpmeta xmlns:x="adobe:ns:meta/" x:xmptk="Adobe XMP Core 5.6-c138 79.159824, 2016/09/14-01:09:01        ">
   <rdf:RDF xmlns:rdf="http://www.w3.org/1999/02/22-rdf-syntax-ns#">
      <rdf:Description rdf:about=""/>
   </rdf:RDF>
</x:xmpmeta>
                                                                                                    
                                                                                                    
                                                                                                    
                                                                                                    
                                                                                                    
                                                                                                    
                                                                                                    
                                                                                                    
                                                                                                    
                                                                                                    
                                                                                                    
                                                                                                    
                                                                                                    
                                                                                                    
                                                                                                    
                                                                                                    
                                                                                                    
                                                                                                    
                                                                                                    
                                                                                                    
                           
<?xpacket end="w"?></metadata>
<defs>
    <style>
      .cls-1 {
        fill: #888;
        fill-rule: evenodd;
      }
    </style>
  </defs>
  <path id="check-circle" class="cls-1" d="M6287.17,2690.57a5.571,5.571,0,0,1,2.9.79,5.824,5.824,0,0,1,2.12,2.12,5.736,5.736,0,0,1,0,5.81,5.824,5.824,0,0,1-2.12,2.12,5.736,5.736,0,0,1-5.81,0,5.824,5.824,0,0,1-2.12-2.12,5.736,5.736,0,0,1,0-5.81,5.824,5.824,0,0,1,2.12-2.12A5.58,5.58,0,0,1,6287.17,2690.57Zm0,10.88a4.956,4.956,0,0,0,2.54-.68,5.1,5.1,0,0,0,1.84-1.85,5.084,5.084,0,0,0,0-5.08,5.1,5.1,0,0,0-1.85-1.84,5.084,5.084,0,0,0-5.08,0,5.178,5.178,0,0,0-1.84,1.85,5.045,5.045,0,0,0-.68,2.55,4.973,4.973,0,0,0,.68,2.53,5.178,5.178,0,0,0,1.85,1.84A5.036,5.036,0,0,0,6287.17,2701.45Zm3.32-6.45a0.235,0.235,0,0,0,.07-0.19,0.352,0.352,0,0,0-.07-0.21l-0.21-.18a0.2,0.2,0,0,0-.18-0.1,0.439,0.439,0,0,0-.22.07l-3.82,3.82-1.61-1.64a0.4,0.4,0,0,0-.21-0.07,0.294,0.294,0,0,0-.19.07l-0.21.19a0.314,0.314,0,0,0-.07.21,0.249,0.249,0,0,0,.07.19l2.01,2.04a0.324,0.324,0,0,0,.21.09,0.232,0.232,0,0,0,.19-0.09Z" transform="translate(-6281.34 -2690.56)"/>
</svg>
