<svg xmlns="http://www.w3.org/2000/svg" width="11.63" height="11.63" viewBox="0 0 11.63 11.63">
  <metadata><?xpacket begin="﻿" id="W5M0MpCehiHzreSzNTczkc9d"?>
<x:xmpmeta xmlns:x="adobe:ns:meta/" x:xmptk="Adobe XMP Core 5.6-c138 79.159824, 2016/09/14-01:09:01        ">
   <rdf:RDF xmlns:rdf="http://www.w3.org/1999/02/22-rdf-syntax-ns#">
      <rdf:Description rdf:about=""/>
   </rdf:RDF>
</x:xmpmeta>
                                                                                                    
                                                                                                    
                                                                                                    
                                                                                                    
                                                                                                    
                                                                                                    
                                                                                                    
                                                                                                    
                                                                                                    
                                                                                                    
                                                                                                    
                                                                                                    
                                                                                                    
                                                                                                    
                                                                                                    
                                                                                                    
                                                                                                    
                                                                                                    
                                                                                                    
                                                                                                    
                           
<?xpacket end="w"?></metadata>
<defs>
    <style>
      .cls-1 {
        fill: #888;
        fill-rule: evenodd;
      }
    </style>
  </defs>
  <path id="clock" class="cls-1" d="M6287.17,2527.57a5.571,5.571,0,0,1,2.9.79,5.824,5.824,0,0,1,2.12,2.12,5.736,5.736,0,0,1,0,5.81,5.824,5.824,0,0,1-2.12,2.12,5.736,5.736,0,0,1-5.81,0,5.824,5.824,0,0,1-2.12-2.12,5.736,5.736,0,0,1,0-5.81,5.824,5.824,0,0,1,2.12-2.12A5.58,5.58,0,0,1,6287.17,2527.57Zm5.06,5.82a4.992,4.992,0,0,0-.68-2.55,5.1,5.1,0,0,0-1.85-1.84,5.084,5.084,0,0,0-5.08,0,5.178,5.178,0,0,0-1.84,1.85,5.045,5.045,0,0,0-.68,2.55,4.973,4.973,0,0,0,.68,2.53,5.178,5.178,0,0,0,1.85,1.84,5.045,5.045,0,0,0,2.55.68,4.946,4.946,0,0,0,2.53-.68,5.1,5.1,0,0,0,1.84-1.85A5,5,0,0,0,6292.23,2533.39Zm-3.49,2.06a0.37,0.37,0,0,0,.21.06,0.265,0.265,0,0,0,.18-0.11l0.19-.28a0.252,0.252,0,0,0,.06-0.2,0.274,0.274,0,0,0-.1-0.18l-1.67-1.21v-3.43a0.318,0.318,0,0,0-.08-0.2,0.3,0.3,0,0,0-.2-0.08H6287a0.3,0.3,0,0,0-.2.08,0.318,0.318,0,0,0-.08.2v3.75a0.24,0.24,0,0,0,.12.22Z" transform="translate(-6281.34 -2527.56)"/>
</svg>
