<svg xmlns="http://www.w3.org/2000/svg" width="47.25" height="36.755" viewBox="0 0 47.25 36.755">
  <metadata><?xpacket begin="﻿" id="W5M0MpCehiHzreSzNTczkc9d"?>
<x:xmpmeta xmlns:x="adobe:ns:meta/" x:xmptk="Adobe XMP Core 5.6-c138 79.159824, 2016/09/14-01:09:01        ">
   <rdf:RDF xmlns:rdf="http://www.w3.org/1999/02/22-rdf-syntax-ns#">
      <rdf:Description rdf:about=""/>
   </rdf:RDF>
</x:xmpmeta>
                                                                                                    
                                                                                                    
                                                                                                    
                                                                                                    
                                                                                                    
                                                                                                    
                                                                                                    
                                                                                                    
                                                                                                    
                                                                                                    
                                                                                                    
                                                                                                    
                                                                                                    
                                                                                                    
                                                                                                    
                                                                                                    
                                                                                                    
                                                                                                    
                                                                                                    
                                                                                                    
                           
<?xpacket end="w"?></metadata>
<defs>
    <style>
      .cls-1 {
        fill: #aaa;
        fill-rule: evenodd;
      }
    </style>
  </defs>
  <path id="credit-card" class="cls-1" d="M7446.48,989.875a3.923,3.923,0,0,1,3.94,3.937v28.878a3.91,3.91,0,0,1-3.94,3.93H7407.1a3.893,3.893,0,0,1-3.93-3.93V993.812a3.906,3.906,0,0,1,3.93-3.937h39.38ZM7407.1,992.5a1.281,1.281,0,0,0-.94.369,1.263,1.263,0,0,0-.37.943v3.938h42v-3.938a1.265,1.265,0,0,0-1.31-1.312H7407.1Zm39.38,31.5a1.25,1.25,0,0,0,.94-0.37,1.266,1.266,0,0,0,.37-0.94v-17.07h-42v17.07a1.266,1.266,0,0,0,1.31,1.31h39.38Zm-27.56-6.89a0.99,0.99,0,0,0-.99-0.99h-5.9a0.951,0.951,0,0,0-.7.29,0.967,0.967,0,0,0-.29.7v0.66a0.99,0.99,0,0,0,.99.98h5.9a0.967,0.967,0,0,0,.7-0.29,0.944,0.944,0,0,0,.29-0.69v-0.66Zm15.75,0a0.967,0.967,0,0,0-.29-0.7,0.951,0.951,0,0,0-.7-0.29h-11.16a0.944,0.944,0,0,0-.69.29,0.967,0.967,0,0,0-.29.7v0.66a0.99,0.99,0,0,0,.98.98h11.16a0.99,0.99,0,0,0,.99-0.98v-0.66Z" transform="translate(-7403.16 -989.875)"/>
</svg>
