<svg xmlns="http://www.w3.org/2000/svg" width="11" height="11" viewBox="0 0 11 11">
  <metadata><?xpacket begin="﻿" id="W5M0MpCehiHzreSzNTczkc9d"?>
<x:xmpmeta xmlns:x="adobe:ns:meta/" x:xmptk="Adobe XMP Core 5.6-c138 79.159824, 2016/09/14-01:09:01        ">
   <rdf:RDF xmlns:rdf="http://www.w3.org/1999/02/22-rdf-syntax-ns#">
      <rdf:Description rdf:about=""/>
   </rdf:RDF>
</x:xmpmeta>
                                                                                                    
                                                                                                    
                                                                                                    
                                                                                                    
                                                                                                    
                                                                                                    
                                                                                                    
                                                                                                    
                                                                                                    
                                                                                                    
                                                                                                    
                                                                                                    
                                                                                                    
                                                                                                    
                                                                                                    
                                                                                                    
                                                                                                    
                                                                                                    
                                                                                                    
                                                                                                    
                           
<?xpacket end="w"?></metadata>
<defs>
    <style>
      .cls-1 {
        fill: #aaa;
        fill-rule: evenodd;
      }
    </style>
  </defs>
  <path id="filter" class="cls-1" d="M1316.33,354.6a0.666,0.666,0,0,1,.5.2,0.675,0.675,0,0,1,.19.484,0.708,0.708,0,0,1-.19.494l-3.93,3.91v5.221a0.646,0.646,0,0,1-.2.473,0.713,0.713,0,0,1-.46.214,0.609,0.609,0,0,1-.48-0.172l-1.38-1.2a0.619,0.619,0,0,1-.23-0.515V359.69l-3.94-3.91a0.757,0.757,0,0,1-.19-0.494,0.72,0.72,0,0,1,.19-0.484,0.666,0.666,0,0,1,.5-0.2h9.62Zm-4.12,4.813,4.12-4.125h-9.62l4.12,4.125v4.3l1.38,1.2v-5.5Z" transform="translate(-1306.03 -354.594)"/>
</svg>
