<svg xmlns="http://www.w3.org/2000/svg" width="22.78" height="17.72" viewBox="0 0 22.78 17.72">
  <metadata><?xpacket begin="﻿" id="W5M0MpCehiHzreSzNTczkc9d"?>
<x:xmpmeta xmlns:x="adobe:ns:meta/" x:xmptk="Adobe XMP Core 5.6-c138 79.159824, 2016/09/14-01:09:01        ">
   <rdf:RDF xmlns:rdf="http://www.w3.org/1999/02/22-rdf-syntax-ns#">
      <rdf:Description rdf:about=""/>
   </rdf:RDF>
</x:xmpmeta>
                                                                                                    
                                                                                                    
                                                                                                    
                                                                                                    
                                                                                                    
                                                                                                    
                                                                                                    
                                                                                                    
                                                                                                    
                                                                                                    
                                                                                                    
                                                                                                    
                                                                                                    
                                                                                                    
                                                                                                    
                                                                                                    
                                                                                                    
                                                                                                    
                                                                                                    
                                                                                                    
                           
<?xpacket end="w"?></metadata>
<defs>
    <style>
      .cls-1 {
        fill: #1d3187;
        fill-rule: evenodd;
        opacity: 0.8;
      }
    </style>
  </defs>
  <path id="map" class="cls-1" d="M5378.52,2556.58a0.633,0.633,0,0,1,.43.18,0.591,0.591,0,0,1,.2.45v13.68a1.2,1.2,0,0,1-.22.71,1.4,1.4,0,0,1-.57.48l-6.01,2.09a2.66,2.66,0,0,1-1.58,0l-6.8-2.41-6.72,2.49a0.672,0.672,0,0,1-.24.04,0.615,0.615,0,0,1-.43-0.18,0.591,0.591,0,0,1-.2-0.45v-13.68a1.2,1.2,0,0,1,.22-0.71,1.34,1.34,0,0,1,.57-0.48l6.01-2.09a2.66,2.66,0,0,1,1.58,0l6.8,2.41,6.72-2.49A0.672,0.672,0,0,1,5378.52,2556.58Zm-20.91,3.4,0.03,12.77,5.7-2.1V2558Zm6.99,10.67,6.33,2.22v-12.65l-6.33-2.22v12.65Zm7.59,2.22,5.73-1.98-0.04-12.77-5.69,2.1v12.65Z" transform="translate(-5356.38 -2556.59)"/>
</svg>
