<svg xmlns="http://www.w3.org/2000/svg" width="52.5" height="36.755" viewBox="0 0 52.5 36.755">
  <metadata><?xpacket begin="﻿" id="W5M0MpCehiHzreSzNTczkc9d"?>
<x:xmpmeta xmlns:x="adobe:ns:meta/" x:xmptk="Adobe XMP Core 5.6-c138 79.159824, 2016/09/14-01:09:01        ">
   <rdf:RDF xmlns:rdf="http://www.w3.org/1999/02/22-rdf-syntax-ns#">
      <rdf:Description rdf:about=""/>
   </rdf:RDF>
</x:xmpmeta>
                                                                                                    
                                                                                                    
                                                                                                    
                                                                                                    
                                                                                                    
                                                                                                    
                                                                                                    
                                                                                                    
                                                                                                    
                                                                                                    
                                                                                                    
                                                                                                    
                                                                                                    
                                                                                                    
                                                                                                    
                                                                                                    
                                                                                                    
                                                                                                    
                                                                                                    
                                                                                                    
                           
<?xpacket end="w"?></metadata>
<defs>
    <style>
      .cls-1 {
        fill: #ececec;
        fill-rule: evenodd;
      }
    </style>
  </defs>
  <path id="money-bill-wave-alt" class="cls-1" d="M6916.42,999.062a6.842,6.842,0,0,1,3.93,1.228,8.556,8.556,0,0,1,2.87,3.37,10.38,10.38,0,0,1,0,9.18,8.556,8.556,0,0,1-2.87,3.37,6.909,6.909,0,0,1-7.87,0,8.637,8.637,0,0,1-2.87-3.37,10.38,10.38,0,0,1,0-9.18,8.637,8.637,0,0,1,2.87-3.37A6.85,6.85,0,0,1,6916.42,999.062Zm0,15.748a4.62,4.62,0,0,0,3.69-1.93,7.666,7.666,0,0,0,0-9.27,4.515,4.515,0,0,0-7.39,0,7.705,7.705,0,0,0,0,9.27A4.624,4.624,0,0,0,6916.42,1014.81Zm24.69-23.13a2.571,2.571,0,0,1,1.15.984,2.755,2.755,0,0,1,.41,1.476v26a2.481,2.481,0,0,1-.78,1.89,2.617,2.617,0,0,1-1.85.74,6.206,6.206,0,0,1-1.48-.33,26.8,26.8,0,0,0-6.97-.9,44.542,44.542,0,0,0-7.63.74c-1.64.33-4.15,0.91-7.54,1.76s-5.91,1.44-7.55,1.76a40.588,40.588,0,0,1-7.63.82,24.683,24.683,0,0,1-9.52-1.8,2.545,2.545,0,0,1-1.14-.98,2.683,2.683,0,0,1-.41-1.48v-26a2.51,2.51,0,0,1,.77-1.886,2.6,2.6,0,0,1,1.85-.739,6.141,6.141,0,0,1,1.48.329,26.762,26.762,0,0,0,6.97.9,45.153,45.153,0,0,0,7.63-.739q2.46-.492,7.55-1.763t7.54-1.764a40.925,40.925,0,0,1,7.63-.82A24.574,24.574,0,0,1,6941.11,991.68Zm-1.89,28.22,0.82,0.24v-26a21.382,21.382,0,0,0-8.45-1.64,38.979,38.979,0,0,0-7.13.738q-2.475.492-7.39,1.723h0q-5.16,1.313-7.79,1.8a44.535,44.535,0,0,1-8.04.82,29.424,29.424,0,0,1-7.63-.985l-0.82-.246v26a21.053,21.053,0,0,0,8.45,1.64,39.361,39.361,0,0,0,7.14-.74q2.46-.5,7.38-1.72h0q5.16-1.32,7.79-1.81a45.264,45.264,0,0,1,8.04-.82A29.3,29.3,0,0,1,6939.22,1019.9Z" transform="translate(-6890.16 -989.875)"/>
</svg>
