<svg xmlns="http://www.w3.org/2000/svg" width="21.44" height="12" viewBox="0 0 21.44 12">
  <metadata><?xpacket begin="﻿" id="W5M0MpCehiHzreSzNTczkc9d"?>
<x:xmpmeta xmlns:x="adobe:ns:meta/" x:xmptk="Adobe XMP Core 5.6-c138 79.159824, 2016/09/14-01:09:01        ">
   <rdf:RDF xmlns:rdf="http://www.w3.org/1999/02/22-rdf-syntax-ns#">
      <rdf:Description rdf:about=""/>
   </rdf:RDF>
</x:xmpmeta>
                                                                                                    
                                                                                                    
                                                                                                    
                                                                                                    
                                                                                                    
                                                                                                    
                                                                                                    
                                                                                                    
                                                                                                    
                                                                                                    
                                                                                                    
                                                                                                    
                                                                                                    
                                                                                                    
                                                                                                    
                                                                                                    
                                                                                                    
                                                                                                    
                                                                                                    
                                                                                                    
                           
<?xpacket end="w"?></metadata>
<defs>
    <style>
      .cls-1 {
        fill: #aaa;
        fill-rule: evenodd;
      }
    </style>
  </defs>
  <path id="nav" class="cls-1" d="M1306.55,877.815a0.53,0.53,0,0,1-.81,0l-5.55-5.437a0.465,0.465,0,0,1,0-.75l5.55-5.438a0.532,0.532,0,0,1,.81,0l0.34,0.328a0.461,0.461,0,0,1,.19.375,0.6,0.6,0,0,1-.19.422l-4.02,3.891h17.99a0.539,0.539,0,0,1,.4.164,0.544,0.544,0,0,1,.17.4v0.469a0.544,0.544,0,0,1-.17.4,0.539,0.539,0,0,1-.4.164h-17.99l4.02,3.891a0.607,0.607,0,0,1,.19.422,0.461,0.461,0,0,1-.19.375Z" transform="translate(-1300 -866)"/>
</svg>
