<svg xmlns="http://www.w3.org/2000/svg" width="21.44" height="12" viewBox="0 0 21.44 12">
  <metadata><?xpacket begin="﻿" id="W5M0MpCehiHzreSzNTczkc9d"?>
<x:xmpmeta xmlns:x="adobe:ns:meta/" x:xmptk="Adobe XMP Core 5.6-c138 79.159824, 2016/09/14-01:09:01        ">
   <rdf:RDF xmlns:rdf="http://www.w3.org/1999/02/22-rdf-syntax-ns#">
      <rdf:Description rdf:about=""/>
   </rdf:RDF>
</x:xmpmeta>
                                                                                                    
                                                                                                    
                                                                                                    
                                                                                                    
                                                                                                    
                                                                                                    
                                                                                                    
                                                                                                    
                                                                                                    
                                                                                                    
                                                                                                    
                                                                                                    
                                                                                                    
                                                                                                    
                                                                                                    
                                                                                                    
                                                                                                    
                                                                                                    
                                                                                                    
                                                                                                    
                           
<?xpacket end="w"?></metadata>
<defs>
    <style>
      .cls-1 {
        fill: #aaa;
        fill-rule: evenodd;
      }
    </style>
  </defs>
  <path id="nav_копия" data-name="nav копия" class="cls-1" d="M1351.44,866.19a0.543,0.543,0,0,1,.82,0l5.55,5.438a0.465,0.465,0,0,1,0,.75l-5.55,5.437a0.541,0.541,0,0,1-.82,0l-0.33-.328a0.436,0.436,0,0,1-.19-0.375,0.568,0.568,0,0,1,.19-0.422l4.02-3.891h-17.99a0.561,0.561,0,0,1-.41-0.164,0.535,0.535,0,0,1-.16-0.4v-0.469a0.535,0.535,0,0,1,.16-0.4,0.561,0.561,0,0,1,.41-0.164h17.99l-4.02-3.891a0.566,0.566,0,0,1-.19-0.422,0.436,0.436,0,0,1,.19-0.375Z" transform="translate(-1336.56 -866)"/>
</svg>
