<svg xmlns="http://www.w3.org/2000/svg" width="10" height="10" viewBox="0 0 10 10">
  <metadata><?xpacket begin="﻿" id="W5M0MpCehiHzreSzNTczkc9d"?>
<x:xmpmeta xmlns:x="adobe:ns:meta/" x:xmptk="Adobe XMP Core 5.6-c138 79.159824, 2016/09/14-01:09:01        ">
   <rdf:RDF xmlns:rdf="http://www.w3.org/1999/02/22-rdf-syntax-ns#">
      <rdf:Description rdf:about=""/>
   </rdf:RDF>
</x:xmpmeta>
                                                                                                    
                                                                                                    
                                                                                                    
                                                                                                    
                                                                                                    
                                                                                                    
                                                                                                    
                                                                                                    
                                                                                                    
                                                                                                    
                                                                                                    
                                                                                                    
                                                                                                    
                                                                                                    
                                                                                                    
                                                                                                    
                                                                                                    
                                                                                                    
                                                                                                    
                                                                                                    
                           
<?xpacket end="w"?></metadata>
<defs>
    <style>
      .cls-1 {
        fill: #aaa;
        fill-rule: evenodd;
      }
    </style>
  </defs>
  <path id="pencil-alt" class="cls-1" d="M10520.5,1197.02a1.189,1.189,0,0,0,0-1.32l-1.2-1.18a0.958,0.958,0,0,0-.7-0.27,0.9,0.9,0,0,0-.6.27l-0.9.9a0.162,0.162,0,0,0-.1.18,0.13,0.13,0,0,0,.1.15l2.1,2.17a0.29,0.29,0,0,0,.4,0Zm-4.2-.82a0.19,0.19,0,0,1,.2-0.08,0.143,0.143,0,0,1,.1.08l2.2,2.17a0.742,0.742,0,0,1,.1.16c0,0.06-.1.12-0.1,0.17l-5.1,5.12-2.4.43a0.374,0.374,0,0,1-.4-0.14,0.641,0.641,0,0,1-.2-0.41l0.5-2.38Zm-3.1,4.69a0.19,0.19,0,0,0,.2.08,1.417,1.417,0,0,0,.2-0.08l3-3.01v-0.39a1.417,1.417,0,0,0-.2-0.08,0.19,0.19,0,0,0-.2.08l-3,3.01a0.181,0.181,0,0,0-.1.2A0.174,0.174,0,0,0,10513.2,1200.89Zm-0.7,1.64v-0.94h-0.7l-0.3,1.25,0.7,0.63,1.2-.24v-0.7h-0.9Z" transform="translate(-10510.8 -1194.25)"/>
</svg>
