<svg xmlns="http://www.w3.org/2000/svg" width="11.3" height="11.25" viewBox="0 0 11.3 11.25">
  <metadata><?xpacket begin="﻿" id="W5M0MpCehiHzreSzNTczkc9d"?>
<x:xmpmeta xmlns:x="adobe:ns:meta/" x:xmptk="Adobe XMP Core 5.6-c138 79.159824, 2016/09/14-01:09:01        ">
   <rdf:RDF xmlns:rdf="http://www.w3.org/1999/02/22-rdf-syntax-ns#">
      <rdf:Description rdf:about=""/>
   </rdf:RDF>
</x:xmpmeta>
                                                                                                    
                                                                                                    
                                                                                                    
                                                                                                    
                                                                                                    
                                                                                                    
                                                                                                    
                                                                                                    
                                                                                                    
                                                                                                    
                                                                                                    
                                                                                                    
                                                                                                    
                                                                                                    
                                                                                                    
                                                                                                    
                                                                                                    
                                                                                                    
                                                                                                    
                                                                                                    
                           
<?xpacket end="w"?></metadata>
<defs>
    <style>
      .cls-1 {
        fill: #1d3187;
        fill-rule: evenodd;
      }
    </style>
  </defs>
  <path id="plus" class="cls-1" d="M10673,541.672a0.336,0.336,0,0,1,.2.073c0,0.049.1,0.1,0.1,0.161v0.938c0,0.058-.1.112-0.1,0.161a0.336,0.336,0,0,1-.2.073h-4.7v4.849a0.336,0.336,0,0,1-.2.073h-0.9a0.191,0.191,0,0,1-.2-0.073,0.147,0.147,0,0,1-.1-0.161v-4.688h-4.7a0.133,0.133,0,0,1-.1-0.073,0.147,0.147,0,0,1-.1-0.161v-0.938a0.147,0.147,0,0,1,.1-0.161,0.133,0.133,0,0,1,.1-0.073h4.7v-4.688a0.147,0.147,0,0,1,.1-0.161,0.191,0.191,0,0,1,.2-0.073h0.9a0.336,0.336,0,0,1,.2.073v4.849h4.7Z" transform="translate(-10662 -536.75)"/>
</svg>
