<svg xmlns="http://www.w3.org/2000/svg" width="14" height="12.25" viewBox="0 0 14 12.25">
  <metadata><?xpacket begin="﻿" id="W5M0MpCehiHzreSzNTczkc9d"?>
<x:xmpmeta xmlns:x="adobe:ns:meta/" x:xmptk="Adobe XMP Core 5.6-c138 79.159824, 2016/09/14-01:09:01        ">
   <rdf:RDF xmlns:rdf="http://www.w3.org/1999/02/22-rdf-syntax-ns#">
      <rdf:Description rdf:about=""/>
   </rdf:RDF>
</x:xmpmeta>
                                                                                                    
                                                                                                    
                                                                                                    
                                                                                                    
                                                                                                    
                                                                                                    
                                                                                                    
                                                                                                    
                                                                                                    
                                                                                                    
                                                                                                    
                                                                                                    
                                                                                                    
                                                                                                    
                                                                                                    
                                                                                                    
                                                                                                    
                                                                                                    
                                                                                                    
                                                                                                    
                           
<?xpacket end="w"?></metadata>
<defs>
    <style>
      .cls-1 {
        fill: #888;
        fill-rule: evenodd;
      }
    </style>
  </defs>
  <path id="random" class="cls-1" d="M891.641,1796.19a0.655,0.655,0,0,0,.192-0.47,0.617,0.617,0,0,0-.192-0.46l-2.16-1.94a0.634,0.634,0,0,0-.466-0.2,0.7,0.7,0,0,0-.478.18,0.606,0.606,0,0,0-.205.48v1.31H888l-2.16-2.38-1.066,1.15,2.46,2.66a0.344,0.344,0,0,0,.247.1h0.847v1.1a0.593,0.593,0,0,0,.205.46,0.669,0.669,0,0,0,.478.19,0.625,0.625,0,0,0,.466-0.19Zm-13.48-6.78a0.338,0.338,0,0,1-.233-0.1,0.306,0.306,0,0,1-.1-0.23v-0.88a0.306,0.306,0,0,1,.1-0.23,0.338,0.338,0,0,1,.233-0.1H881.2a0.353,0.353,0,0,1,.246.11l2.46,2.66-1.038,1.12-2.188-2.35h-2.515Zm13.48-1.15a0.617,0.617,0,0,1,.192.46,0.655,0.655,0,0,1-.192.47l-2.16,1.99a0.625,0.625,0,0,1-.466.19,0.669,0.669,0,0,1-.478-0.19,0.593,0.593,0,0,1-.205-0.46v-1.31H888l-6.562,7.11a0.341,0.341,0,0,1-.246.1h-3.035a0.329,0.329,0,0,1-.233-0.09,0.306,0.306,0,0,1-.1-0.23v-0.88a0.306,0.306,0,0,1,.1-0.23,0.338,0.338,0,0,1,.233-0.1h2.515l6.562-7.11a0.355,0.355,0,0,1,.247-0.11h0.847v-1.09a0.593,0.593,0,0,1,.205-0.46,0.679,0.679,0,0,1,.478-0.2,0.634,0.634,0,0,1,.466.2Z" transform="translate(-877.844 -1786.13)"/>
</svg>
