<svg xmlns="http://www.w3.org/2000/svg" width="14" height="14" viewBox="0 0 14 14">
  <defs>
    <style>
      .cls-1 {
        fill: #fff;
        fill-rule: evenodd;
      }
    </style>
  </defs>
  <path id="search" class="cls-1" d="M1073.17,253.574a0.316,0.316,0,0,1,.08.219,0.43,0.43,0,0,1-.08.246l-0.63.6a0.345,0.345,0,0,1-.25.109,0.27,0.27,0,0,1-.22-0.109l-3.33-3.309a0.331,0.331,0,0,1-.08-0.219V250.73a5.87,5.87,0,0,1-1.73,1.026,5.448,5.448,0,0,1-1.99.369,5.536,5.536,0,0,1-2.86-.766,5.694,5.694,0,0,1-2.06-2.064,5.687,5.687,0,0,1,0-5.715,5.694,5.694,0,0,1,2.06-2.064,5.536,5.536,0,0,1,2.86-.766,5.475,5.475,0,0,1,2.85.766,5.721,5.721,0,0,1,2.07,2.064,5.532,5.532,0,0,1,.77,2.858,5.634,5.634,0,0,1-.37,2,5.909,5.909,0,0,1-1.03,1.722h0.38a0.3,0.3,0,0,1,.22.082Zm-8.23-2.761a4.348,4.348,0,0,0,3.78-2.188,4.35,4.35,0,0,0,0-4.375,4.344,4.344,0,0,0-3.78-2.187,4.259,4.259,0,0,0-2.19.587,4.369,4.369,0,0,0-1.6,1.6,4.35,4.35,0,0,0,0,4.375,4.369,4.369,0,0,0,1.6,1.6A4.26,4.26,0,0,0,1064.94,250.813Z" transform="translate(-1059.25 -240.75)"/>
</svg>
