<svg xmlns="http://www.w3.org/2000/svg" width="27.5" height="24.407" viewBox="0 0 27.5 24.407">
  <metadata><?xpacket begin="﻿" id="W5M0MpCehiHzreSzNTczkc9d"?>
<x:xmpmeta xmlns:x="adobe:ns:meta/" x:xmptk="Adobe XMP Core 5.6-c138 79.159824, 2016/09/14-01:09:01        ">
   <rdf:RDF xmlns:rdf="http://www.w3.org/1999/02/22-rdf-syntax-ns#">
      <rdf:Description rdf:about=""/>
   </rdf:RDF>
</x:xmpmeta>
                                                                                                    
                                                                                                    
                                                                                                    
                                                                                                    
                                                                                                    
                                                                                                    
                                                                                                    
                                                                                                    
                                                                                                    
                                                                                                    
                                                                                                    
                                                                                                    
                                                                                                    
                                                                                                    
                                                                                                    
                                                                                                    
                                                                                                    
                                                                                                    
                                                                                                    
                                                                                                    
                           
<?xpacket end="w"?></metadata>
<defs>
    <style>
      .cls-1 {
        fill: #1d3187;
        fill-rule: evenodd;
      }
    </style>
  </defs>
  <path id="shopping-cart" class="cls-1" d="M1281.22,241.2a1.1,1.1,0,0,1,.88.429,1.015,1.015,0,0,1,.22.954l-2.06,9.922a1.164,1.164,0,0,1-.4.645,1.054,1.054,0,0,1-.69.262h-15.84l0.57,3.053h14.12a1.178,1.178,0,0,1,.74.238,1.12,1.12,0,0,1,.41.62,3,3,0,0,1,.9,2.195,3.05,3.05,0,1,1-6.1,0,2.89,2.89,0,0,1,.43-1.527h-6.97a2.89,2.89,0,0,1,.43,1.527,3.068,3.068,0,0,1-5.22,2.171,3.035,3.035,0,0,1-.07-4.222l-3.34-17.794h-3.77a0.575,0.575,0,0,1-.58-0.573v-0.381a0.574,0.574,0,0,1,.58-0.572h4.05a1.089,1.089,0,0,1,.74.262,1.248,1.248,0,0,1,.41.691l0.38,2.1h20.18Zm-14.89,18.318a1.525,1.525,0,1,0-2.6,1.074,1.488,1.488,0,0,0,1.08.453A1.542,1.542,0,0,0,1266.33,259.518Zm10.69,1.527a1.466,1.466,0,0,0,1.07-.453,1.483,1.483,0,0,0,0-2.147,1.488,1.488,0,0,0-2.14,0,1.483,1.483,0,0,0,0,2.147A1.466,1.466,0,0,0,1277.02,261.045Zm1.81-9.16,1.91-9.159h-19.42l1.72,9.159h15.79Z" transform="translate(-1254.88 -238.156)"/>
</svg>
