<svg xmlns="http://www.w3.org/2000/svg" width="24.18" height="18.12" viewBox="0 0 24.18 18.12">
  <metadata><?xpacket begin="﻿" id="W5M0MpCehiHzreSzNTczkc9d"?>
<x:xmpmeta xmlns:x="adobe:ns:meta/" x:xmptk="Adobe XMP Core 5.6-c138 79.159824, 2016/09/14-01:09:01        ">
   <rdf:RDF xmlns:rdf="http://www.w3.org/1999/02/22-rdf-syntax-ns#">
      <rdf:Description rdf:about=""/>
   </rdf:RDF>
</x:xmpmeta>
                                                                                                    
                                                                                                    
                                                                                                    
                                                                                                    
                                                                                                    
                                                                                                    
                                                                                                    
                                                                                                    
                                                                                                    
                                                                                                    
                                                                                                    
                                                                                                    
                                                                                                    
                                                                                                    
                                                                                                    
                                                                                                    
                                                                                                    
                                                                                                    
                                                                                                    
                                                                                                    
                           
<?xpacket end="w"?></metadata>
<defs>
    <style>
      .cls-1 {
        fill: #1d3187;
        fill-rule: evenodd;
        opacity: 0.8;
      }
    </style>
  </defs>
  <path id="sign-out" class="cls-1" d="M5357.17,2717.43a2.27,2.27,0,0,0-2.27,2.27v13.6a2.27,2.27,0,0,0,2.27,2.27h6.24a0.535,0.535,0,0,0,.4-0.16,0.566,0.566,0,0,0,.17-0.41v-0.37a0.583,0.583,0,0,0-.17-0.41,0.576,0.576,0,0,0-.4-0.16h-6.24a0.731,0.731,0,0,1-.54-0.21,0.754,0.754,0,0,1-.21-0.55v-13.6a0.754,0.754,0,0,1,.21-0.55,0.731,0.731,0,0,1,.54-0.21h6.24a0.581,0.581,0,0,0,.57-0.57v-0.38a0.561,0.561,0,0,0-.17-0.4,0.535,0.535,0,0,0-.4-0.16h-6.24Zm13.18,0.9a0.622,0.622,0,0,1,.81,0l7.79,7.74a0.682,0.682,0,0,1,.15.43,0.5,0.5,0,0,1-.15.38l-7.79,7.79a0.5,0.5,0,0,1-.38.15,0.627,0.627,0,0,1-.43-0.19l-0.33-.33a0.474,0.474,0,0,1-.19-0.38,0.627,0.627,0,0,1,.19-0.43l6.24-6.19h-13.23a0.535,0.535,0,0,1-.4-0.16,0.561,0.561,0,0,1-.17-0.4v-0.48a0.561,0.561,0,0,1,.17-0.4,0.535,0.535,0,0,1,.4-0.16h13.23l-6.24-6.19a0.627,0.627,0,0,1-.19-0.43,0.474,0.474,0,0,1,.19-0.38Z" transform="translate(-5354.91 -2717.44)"/>
</svg>
