<svg xmlns="http://www.w3.org/2000/svg" width="8.75" height="13.12" viewBox="0 0 8.75 13.12">
  <metadata><?xpacket begin="﻿" id="W5M0MpCehiHzreSzNTczkc9d"?>
<x:xmpmeta xmlns:x="adobe:ns:meta/" x:xmptk="Adobe XMP Core 5.6-c138 79.159824, 2016/09/14-01:09:01        ">
   <rdf:RDF xmlns:rdf="http://www.w3.org/1999/02/22-rdf-syntax-ns#">
      <rdf:Description rdf:about=""/>
   </rdf:RDF>
</x:xmpmeta>
                                                                                                    
                                                                                                    
                                                                                                    
                                                                                                    
                                                                                                    
                                                                                                    
                                                                                                    
                                                                                                    
                                                                                                    
                                                                                                    
                                                                                                    
                                                                                                    
                                                                                                    
                                                                                                    
                                                                                                    
                                                                                                    
                                                                                                    
                                                                                                    
                                                                                                    
                                                                                                    
                           
<?xpacket end="w"?></metadata>
<defs>
    <style>
      .cls-1 {
        fill: #aaa;
        fill-rule: evenodd;
      }
    </style>
  </defs>
  <path id="sort" class="cls-1" d="M4633.43,2789.62a1.3,1.3,0,0,1,1.32,1.3,1.382,1.382,0,0,1-.38.95l-3.07,3.06a1.267,1.267,0,0,1-.93.38,1.3,1.3,0,0,1-.93-0.38l-3.06-3.06a1.34,1.34,0,0,1,.01-1.86,1.232,1.232,0,0,1,.92-0.39h6.12Zm-3.06,4.38,3.06-3.06h-6.12Zm-3.06-6.13a1.222,1.222,0,0,1-.94-0.38,1.245,1.245,0,0,1-.37-0.91,1.382,1.382,0,0,1,.38-0.95l3.06-3.06a1.26,1.26,0,0,1,.93-0.38,1.23,1.23,0,0,1,.93.38l3.07,3.06a1.318,1.318,0,0,1,.36.95,1.255,1.255,0,0,1-.38.91,1.193,1.193,0,0,1-.92.38h-6.12Zm3.06-4.37-3.06,3.06h6.12Z" transform="translate(-4626 -2782.19)"/>
</svg>
