<svg xmlns="http://www.w3.org/2000/svg" width="14" height="13.56" viewBox="0 0 14 13.56">
  <metadata><?xpacket begin="﻿" id="W5M0MpCehiHzreSzNTczkc9d"?>
<x:xmpmeta xmlns:x="adobe:ns:meta/" x:xmptk="Adobe XMP Core 5.6-c138 79.159824, 2016/09/14-01:09:01        ">
   <rdf:RDF xmlns:rdf="http://www.w3.org/1999/02/22-rdf-syntax-ns#">
      <rdf:Description rdf:about=""/>
   </rdf:RDF>
</x:xmpmeta>
                                                                                                    
                                                                                                    
                                                                                                    
                                                                                                    
                                                                                                    
                                                                                                    
                                                                                                    
                                                                                                    
                                                                                                    
                                                                                                    
                                                                                                    
                                                                                                    
                                                                                                    
                                                                                                    
                                                                                                    
                                                                                                    
                                                                                                    
                                                                                                    
                                                                                                    
                                                                                                    
                           
<?xpacket end="w"?></metadata>
<defs>
    <style>
      .cls-1 {
        fill: #888;
        fill-rule: evenodd;
      }
    </style>
  </defs>
  <path id="sync" class="cls-1" d="M2660.92,4166.29a0.342,0.342,0,0,1,.33.33v5.25a0.342,0.342,0,0,1-.33.33h-5.25a0.29,0.29,0,0,1-.23-0.1,0.326,0.326,0,0,1-.1-0.23v-0.77a0.345,0.345,0,0,1,.1-0.23,0.317,0.317,0,0,1,.23-0.09l3.47,0.08a5.376,5.376,0,0,0-1.96-2.29,5.289,5.289,0,0,0-2.93-.86,5.335,5.335,0,0,0-4.23,2.07,5.432,5.432,0,0,0-1.02,2.14,0.228,0.228,0,0,1-.1.21,0.372,0.372,0,0,1-.2.07h-0.79a0.293,0.293,0,0,1-.26-0.13,0.28,0.28,0,0,1-.07-0.26,6.884,6.884,0,0,1,3.62-4.79,6.775,6.775,0,0,1,6.29.09,6.88,6.88,0,0,1,2.42,2.22l-0.08-2.71a0.317,0.317,0,0,1,.09-0.23,0.31,0.31,0,0,1,.24-0.1h0.76Zm-0.33,7.66a0.309,0.309,0,0,1,.26.12,0.286,0.286,0,0,1,.07.26,6.67,6.67,0,0,1-1.26,2.82,6.748,6.748,0,0,1-2.36,1.98,6.815,6.815,0,0,1-6.29-.1,6.762,6.762,0,0,1-2.42-2.21l0.08,2.71a0.334,0.334,0,0,1-.09.23,0.358,0.358,0,0,1-.24.09h-0.76a0.317,0.317,0,0,1-.23-0.09,0.3,0.3,0,0,1-.1-0.23v-5.25a0.31,0.31,0,0,1,.1-0.24,0.317,0.317,0,0,1,.23-0.09h5.25a0.317,0.317,0,0,1,.23.09,0.349,0.349,0,0,1,.1.24v0.76a0.326,0.326,0,0,1-.1.23,0.29,0.29,0,0,1-.23.1l-3.48-.08a5.382,5.382,0,0,0,1.97,2.28,5.424,5.424,0,0,0,5.29.32,5.5,5.5,0,0,0,2.89-3.67,0.212,0.212,0,0,1,.1-0.2,0.306,0.306,0,0,1,.2-0.07h0.79Z" transform="translate(-2647.25 -4166.28)"/>
</svg>
