<svg xmlns="http://www.w3.org/2000/svg" width="17.22" height="15" viewBox="0 0 17.22 15">
  <metadata><?xpacket begin="﻿" id="W5M0MpCehiHzreSzNTczkc9d"?>
<x:xmpmeta xmlns:x="adobe:ns:meta/" x:xmptk="Adobe XMP Core 5.6-c138 79.159824, 2016/09/14-01:09:01        ">
   <rdf:RDF xmlns:rdf="http://www.w3.org/1999/02/22-rdf-syntax-ns#">
      <rdf:Description rdf:about=""/>
   </rdf:RDF>
</x:xmpmeta>
                                                                                                    
                                                                                                    
                                                                                                    
                                                                                                    
                                                                                                    
                                                                                                    
                                                                                                    
                                                                                                    
                                                                                                    
                                                                                                    
                                                                                                    
                                                                                                    
                                                                                                    
                                                                                                    
                                                                                                    
                                                                                                    
                                                                                                    
                                                                                                    
                                                                                                    
                                                                                                    
                           
<?xpacket end="w"?></metadata>
<defs>
    <style>
      .cls-1 {
        fill: #aaa;
        fill-rule: evenodd;
      }
    </style>
  </defs>
  <path id="_th-list_" data-name=" th-list " class="cls-1" d="M4680.77,2782.61a1.517,1.517,0,0,1,.47-1.14,1.555,1.555,0,0,1,1.14-.47h14a1.594,1.594,0,0,1,1.15.47,1.555,1.555,0,0,1,.47,1.14v11.78a1.555,1.555,0,0,1-.47,1.14,1.594,1.594,0,0,1-1.15.47h-14a1.555,1.555,0,0,1-1.14-.47,1.517,1.517,0,0,1-.47-1.14v-11.78Zm15.88,7.5v-3.22h-9.25v3.22h9.25Zm0,1.34h-9.25v3.21h8.85a0.363,0.363,0,0,0,.28-0.12,0.378,0.378,0,0,0,.12-0.28v-2.81Zm-14.54-4.56v3.22h3.94v-3.22h-3.94Zm5.29-1.34h9.25v-2.81a0.41,0.41,0,0,0-.4-0.4h-8.85v3.21Zm-1.35-3.21h-3.53a0.385,0.385,0,0,0-.29.12,0.363,0.363,0,0,0-.12.28v2.81h3.94v-3.21Zm-3.94,9.11v2.81a0.378,0.378,0,0,0,.12.28,0.385,0.385,0,0,0,.29.12h3.53v-3.21h-3.94Z" transform="translate(-4680.78 -2781)"/>
</svg>
