<svg xmlns="http://www.w3.org/2000/svg" width="14" height="16" viewBox="0 0 14 16">
  <metadata><?xpacket begin="﻿" id="W5M0MpCehiHzreSzNTczkc9d"?>
<x:xmpmeta xmlns:x="adobe:ns:meta/" x:xmptk="Adobe XMP Core 5.6-c138 79.159824, 2016/09/14-01:09:01        ">
   <rdf:RDF xmlns:rdf="http://www.w3.org/1999/02/22-rdf-syntax-ns#">
      <rdf:Description rdf:about=""/>
   </rdf:RDF>
</x:xmpmeta>
                                                                                                    
                                                                                                    
                                                                                                    
                                                                                                    
                                                                                                    
                                                                                                    
                                                                                                    
                                                                                                    
                                                                                                    
                                                                                                    
                                                                                                    
                                                                                                    
                                                                                                    
                                                                                                    
                                                                                                    
                                                                                                    
                                                                                                    
                                                                                                    
                                                                                                    
                                                                                                    
                           
<?xpacket end="w"?></metadata>
<defs>
    <style>
      .cls-1 {
        fill: #aaa;
        fill-rule: evenodd;
      }
    </style>
  </defs>
  <path id="trash-alt" class="cls-1" d="M6357.17,528h2.75a0.74,0.74,0,0,1,.53.219,0.748,0.748,0,0,1,.22.531v0.063a0.164,0.164,0,0,1-.07.125,0.172,0.172,0,0,1-.12.062h-0.81v11.5a1.5,1.5,0,0,1-1.5,1.5h-9a1.474,1.474,0,0,1-1.07-.437,1.447,1.447,0,0,1-.43-1.063V529h-0.82a0.172,0.172,0,0,1-.12-0.062,0.185,0.185,0,0,1-.06-0.125V528.75a0.749,0.749,0,0,1,.75-0.75h2.75l1.06-1.406a1.4,1.4,0,0,1,1.19-.594h2.5a1.382,1.382,0,0,1,1.18.594Zm-4.75-1a0.5,0.5,0,0,0-.41.188l-0.59.812h4.5l-0.6-.812a0.5,0.5,0,0,0-.4-0.188h-2.5Zm6.25,13.5V529h-10v11.5a0.461,0.461,0,0,0,.14.359,0.475,0.475,0,0,0,.36.141h9a0.507,0.507,0,0,0,.36-0.141A0.5,0.5,0,0,0,6358.67,540.5Zm-5.5-1.375a0.338,0.338,0,0,0,.11.266,0.35,0.35,0,0,0,.26.109h0.25a0.374,0.374,0,0,0,.38-0.375v-8.25a0.374,0.374,0,0,0-.38-0.375h-0.25a0.35,0.35,0,0,0-.26.109,0.338,0.338,0,0,0-.11.266v8.25Zm-2.5,0a0.338,0.338,0,0,0,.11.266,0.35,0.35,0,0,0,.26.109h0.25a0.374,0.374,0,0,0,.38-0.375v-8.25a0.374,0.374,0,0,0-.38-0.375h-0.25a0.35,0.35,0,0,0-.26.109,0.338,0.338,0,0,0-.11.266v8.25Zm5,0a0.338,0.338,0,0,0,.11.266,0.35,0.35,0,0,0,.26.109h0.25a0.374,0.374,0,0,0,.38-0.375v-8.25a0.374,0.374,0,0,0-.38-0.375h-0.25a0.35,0.35,0,0,0-.26.109,0.338,0.338,0,0,0-.11.266v8.25Z" transform="translate(-6346.66 -526)"/>
</svg>
