<svg xmlns="http://www.w3.org/2000/svg" width="22.5" height="18" viewBox="0 0 22.5 18">
  <metadata><?xpacket begin="﻿" id="W5M0MpCehiHzreSzNTczkc9d"?>
<x:xmpmeta xmlns:x="adobe:ns:meta/" x:xmptk="Adobe XMP Core 5.6-c138 79.159824, 2016/09/14-01:09:01        ">
   <rdf:RDF xmlns:rdf="http://www.w3.org/1999/02/22-rdf-syntax-ns#">
      <rdf:Description rdf:about=""/>
   </rdf:RDF>
</x:xmpmeta>
                                                                                                    
                                                                                                    
                                                                                                    
                                                                                                    
                                                                                                    
                                                                                                    
                                                                                                    
                                                                                                    
                                                                                                    
                                                                                                    
                                                                                                    
                                                                                                    
                                                                                                    
                                                                                                    
                                                                                                    
                                                                                                    
                                                                                                    
                                                                                                    
                                                                                                    
                                                                                                    
                           
<?xpacket end="w"?></metadata>
<defs>
    <style>
      .cls-1 {
        fill: #1d3187;
        fill-rule: evenodd;
      }
    </style>
  </defs>
  <path id="truck" class="cls-1" d="M4233.35,729.77a0.529,0.529,0,0,1,.56.562V730.9a0.531,0.531,0,0,1-.56.563h-1.68a3.38,3.38,0,0,1-6.76,0h-4.5a3.375,3.375,0,1,1-6.75,0h-0.28a1.982,1.982,0,0,1-1.97-1.969V718.8a1.98,1.98,0,0,1,1.97-1.968h10.69a1.9,1.9,0,0,1,1.39.58,1.879,1.879,0,0,1,.58,1.388v1.407h1.27a2.436,2.436,0,0,1,1.79.738l2.95,2.953a2.451,2.451,0,0,1,.74,1.793v4.078h0.56Zm-16.31,3.375a1.6,1.6,0,0,0,1.19-.492,1.679,1.679,0,0,0,0-2.391,1.6,1.6,0,0,0-1.19-.492,1.639,1.639,0,0,0-1.2.492,1.7,1.7,0,0,0,0,2.391A1.639,1.639,0,0,0,4217.04,733.145Zm7.31-3.375V718.8a0.266,0.266,0,0,0-.09-0.193,0.247,0.247,0,0,0-.19-0.088h-10.69a0.263,0.263,0,0,0-.19.088,0.266,0.266,0,0,0-.09.193v10.688a0.308,0.308,0,0,0,.28.281h0.74a3.533,3.533,0,0,1,1.23-1.23,3.353,3.353,0,0,1,3.38,0,3.533,3.533,0,0,1,1.23,1.23h4.39Zm1.69-7.875v2.813h4.43l-2.57-2.567a0.8,0.8,0,0,0-.59-0.246h-1.27Zm2.25,11.25a1.639,1.639,0,0,0,1.2-.492,1.7,1.7,0,0,0,0-2.391,1.709,1.709,0,0,0-2.4,0,1.7,1.7,0,0,0,0,2.391A1.639,1.639,0,0,0,4228.29,733.145Zm2.81-3.55v-3.2h-5.06v2.567a3.37,3.37,0,0,1,3.87-.475A3.246,3.246,0,0,1,4231.1,729.6Z" transform="translate(-4211.41 -716.844)"/>
</svg>
