<svg xmlns="http://www.w3.org/2000/svg" width="21.44" height="24.5" viewBox="0 0 21.44 24.5">
  <metadata><?xpacket begin="﻿" id="W5M0MpCehiHzreSzNTczkc9d"?>
<x:xmpmeta xmlns:x="adobe:ns:meta/" x:xmptk="Adobe XMP Core 5.6-c138 79.159824, 2016/09/14-01:09:01        ">
   <rdf:RDF xmlns:rdf="http://www.w3.org/1999/02/22-rdf-syntax-ns#">
      <rdf:Description rdf:about=""/>
   </rdf:RDF>
</x:xmpmeta>
                                                                                                    
                                                                                                    
                                                                                                    
                                                                                                    
                                                                                                    
                                                                                                    
                                                                                                    
                                                                                                    
                                                                                                    
                                                                                                    
                                                                                                    
                                                                                                    
                                                                                                    
                                                                                                    
                                                                                                    
                                                                                                    
                                                                                                    
                                                                                                    
                                                                                                    
                                                                                                    
                           
<?xpacket end="w"?></metadata>
<defs>
    <style>
      .cls-1 {
        fill: #1d3187;
        fill-rule: evenodd;
      }
    </style>
  </defs>
  <path id="user" class="cls-1" d="M1161.81,249.53a6.291,6.291,0,0,1,3.2.861,6.415,6.415,0,0,1,2.35,2.345,6.318,6.318,0,0,1,.86,3.206v2.01a2.288,2.288,0,0,1-2.3,2.3h-16.84a2.288,2.288,0,0,1-2.3-2.3v-2.01a6.318,6.318,0,0,1,.86-3.206,6.415,6.415,0,0,1,2.35-2.345,6.265,6.265,0,0,1,3.2-.861,5.43,5.43,0,0,1,1.63.335c0.45,0.128.81,0.224,1.1,0.288a8.8,8.8,0,0,0,3.16,0c0.29-.064.65-0.16,1.1-0.288A5.43,5.43,0,0,1,1161.81,249.53Zm4.88,8.422v-2.01a4.91,4.91,0,0,0-4.88-4.881,4.743,4.743,0,0,0-1.2.24,9.457,9.457,0,0,1-6.22,0,4.743,4.743,0,0,0-1.2-.24,4.91,4.91,0,0,0-4.88,4.881v2.01a0.745,0.745,0,0,0,.77.766h16.84a0.743,0.743,0,0,0,.55-0.216A0.762,0.762,0,0,0,1166.69,257.952ZM1157.5,248a6.077,6.077,0,0,1-3.09-.813,5.942,5.942,0,0,1-2.22-2.225,6.219,6.219,0,0,1,0-6.173,5.934,5.934,0,0,1,2.22-2.225,6.279,6.279,0,0,1,6.18,0,5.934,5.934,0,0,1,2.22,2.225,6.286,6.286,0,0,1,0,6.173,5.942,5.942,0,0,1-2.22,2.225A6.1,6.1,0,0,1,1157.5,248Zm0-10.719a4.577,4.577,0,1,0,3.25,1.341A4.408,4.408,0,0,0,1157.5,237.28Z" transform="translate(-1146.78 -235.75)"/>
</svg>
