<?xml version="1.0" encoding="utf-8"?><svg xmlns="http://www.w3.org/2000/svg" xmlns:xlink="http://www.w3.org/1999/xlink"><symbol viewBox="0 0 27 21" id="address-card" xmlns="http://www.w3.org/2000/svg"><path d="M24 0a3.04 3.04 0 0 1 3 3v15a3.04 3.04 0 0 1-3 3H3a3.04 3.04 0 0 1-3-3V3a3.04 3.04 0 0 1 3-3h21zm1.5 18V3A1.538 1.538 0 0 0 24 1.5H3A1.52 1.52 0 0 0 1.5 3v15A1.52 1.52 0 0 0 3 19.5h21a1.538 1.538 0 0 0 1.5-1.5zm-3.38-6a.352.352 0 0 1 .26.12.348.348 0 0 1 .12.25v.75a.414.414 0 0 1-.38.38h-5.25a.332.332 0 0 1-.25-.12.352.352 0 0 1-.12-.26v-.75a.348.348 0 0 1 .12-.25.332.332 0 0 1 .25-.12h5.25zm0-3a.352.352 0 0 1 .26.12.348.348 0 0 1 .12.25v.75a.414.414 0 0 1-.38.38h-5.25a.332.332 0 0 1-.25-.12.352.352 0 0 1-.12-.26v-.75a.348.348 0 0 1 .12-.25.332.332 0 0 1 .25-.12h5.25zm0-3a.352.352 0 0 1 .26.12.348.348 0 0 1 .12.25v.75a.414.414 0 0 1-.38.38h-5.25a.332.332 0 0 1-.25-.12.352.352 0 0 1-.12-.26v-.75a.348.348 0 0 1 .12-.25.332.332 0 0 1 .25-.12h5.25zM9.75 12a3.756 3.756 0 1 1 2.65-1.1A3.641 3.641 0 0 1 9.75 12zm0-6a2.253 2.253 0 1 0 1.59.66A2.136 2.136 0 0 0 9.75 6zm2.2 6.75a3.225 3.225 0 0 1 1.43.33 2.786 2.786 0 0 1 1.1.94A3.147 3.147 0 0 1 15 15.8v1.07a.411.411 0 0 1-.09.26.356.356 0 0 1-.29.12h-.75a.332.332 0 0 1-.25-.12.352.352 0 0 1-.12-.26V15.8a1.625 1.625 0 0 0-.28-.94 1.438 1.438 0 0 0-1.27-.61 2.9 2.9 0 0 0-.7.14 6.016 6.016 0 0 1-3 0 2.9 2.9 0 0 0-.7-.14 1.427 1.427 0 0 0-1.27.61 1.625 1.625 0 0 0-.28.94v1.07a.414.414 0 0 1-.38.38h-.75a.332.332 0 0 1-.25-.12.352.352 0 0 1-.12-.26V15.8a3.219 3.219 0 0 1 .51-1.78 2.815 2.815 0 0 1 1.11-.94 3.225 3.225 0 0 1 1.43-.33 3.889 3.889 0 0 1 1.05.16 4.215 4.215 0 0 0 1.15.17 4.272 4.272 0 0 0 1.15-.17 3.889 3.889 0 0 1 1.05-.16z" fill-rule="evenodd" opacity=".8"/></symbol><symbol viewBox="0 0 12.25 10.281" id="bars" xmlns="http://www.w3.org/2000/svg"><path d="M11.921 1.546a.326.326 0 0 0 .327-.328V.343a.326.326 0 0 0-.327-.329H.327A.326.326 0 0 0 0 .343v.875a.326.326 0 0 0 .327.328h11.594zm0 4.375a.326.326 0 0 0 .327-.328v-.875a.324.324 0 0 0-.327-.328H.327A.324.324 0 0 0 0 4.718v.875a.326.326 0 0 0 .327.328h11.594zm0 4.375a.324.324 0 0 0 .327-.329v-.874a.324.324 0 0 0-.327-.328H.327a.312.312 0 0 0-.232.1.317.317 0 0 0-.1.233v.874a.324.324 0 0 0 .327.329h11.594z" fill-rule="evenodd"/></symbol><symbol viewBox="0 0 20.25 20.25" id="box" xmlns="http://www.w3.org/2000/svg"><path d="M20.16 7.32a2.214 2.214 0 0 1 .08.59v10.44a1.836 1.836 0 0 1-.56 1.34 1.8 1.8 0 0 1-1.34.55H1.9A1.878 1.878 0 0 1 0 18.35V7.91a1.448 1.448 0 0 1 .12-.59l1.97-6.01a1.964 1.964 0 0 1 .7-.95A1.909 1.909 0 0 1 3.91.01h12.42a1.909 1.909 0 0 1 1.12.35 1.885 1.885 0 0 1 .69.95zm-18.9.59h8.23V1.27H3.91a.605.605 0 0 0-.39.12.65.65 0 0 0-.24.32l-1.98 6a.592.592 0 0 0-.04.2zm17.71 10.44V9.18H1.26v9.17a.611.611 0 0 0 .18.45.618.618 0 0 0 .46.18h16.44a.618.618 0 0 0 .46-.18.644.644 0 0 0 .17-.45zm0-10.44a.421.421 0 0 0-.04-.2l-1.97-6a.715.715 0 0 0-.24-.32.625.625 0 0 0-.39-.12h-5.58v6.64h8.22z" fill-rule="evenodd" opacity=".8"/></symbol><symbol viewBox="0 0 10.75 8.25" id="check" xmlns="http://www.w3.org/2000/svg"><path d="M9.59.081A.246.246 0 0 1 9.78.01a.375.375 0 0 1 .21.071l.65.679a.212.212 0 0 1 .1.188.273.273 0 0 1-.1.211L3.61 8.19a.261.261 0 0 1-.19.07.374.374 0 0 1-.21-.07L.1 5.05a.212.212 0 0 1-.1-.188.273.273 0 0 1 .1-.211l.65-.656a.281.281 0 0 1 .21-.094.228.228 0 0 1 .19.094l2.27 2.273z" fill-rule="evenodd"/></symbol><symbol viewBox="0 0 11.63 11.63" id="check-circle" xmlns="http://www.w3.org/2000/svg"><path d="M5.83.01a5.571 5.571 0 0 1 2.9.79 5.824 5.824 0 0 1 2.12 2.12 5.736 5.736 0 0 1 0 5.81 5.824 5.824 0 0 1-2.12 2.12 5.736 5.736 0 0 1-5.81 0A5.824 5.824 0 0 1 .8 8.73a5.736 5.736 0 0 1 0-5.81A5.824 5.824 0 0 1 2.92.8 5.58 5.58 0 0 1 5.83.01zm0 10.88a4.956 4.956 0 0 0 2.54-.68 5.1 5.1 0 0 0 1.84-1.85 5.084 5.084 0 0 0 0-5.08 5.1 5.1 0 0 0-1.85-1.84 5.084 5.084 0 0 0-5.08 0 5.178 5.178 0 0 0-1.84 1.85 5.045 5.045 0 0 0-.68 2.55 4.973 4.973 0 0 0 .68 2.53 5.178 5.178 0 0 0 1.85 1.84 5.036 5.036 0 0 0 2.54.68zm3.32-6.45a.235.235 0 0 0 .07-.19.352.352 0 0 0-.07-.21l-.21-.18a.2.2 0 0 0-.18-.1.439.439 0 0 0-.22.07L4.72 7.65 3.11 6.01a.4.4 0 0 0-.21-.07.294.294 0 0 0-.19.07l-.21.19a.314.314 0 0 0-.07.21.249.249 0 0 0 .07.19l2.01 2.04a.324.324 0 0 0 .21.09.232.232 0 0 0 .19-.09z" fill-rule="evenodd"/></symbol><symbol viewBox="0 0 11.63 11.63" id="clock" xmlns="http://www.w3.org/2000/svg"><path d="M5.83.01a5.571 5.571 0 0 1 2.9.79 5.824 5.824 0 0 1 2.12 2.12 5.736 5.736 0 0 1 0 5.81 5.824 5.824 0 0 1-2.12 2.12 5.736 5.736 0 0 1-5.81 0A5.824 5.824 0 0 1 .8 8.73a5.736 5.736 0 0 1 0-5.81A5.824 5.824 0 0 1 2.92.8 5.58 5.58 0 0 1 5.83.01zm5.06 5.82a4.992 4.992 0 0 0-.68-2.55 5.1 5.1 0 0 0-1.85-1.84 5.084 5.084 0 0 0-5.08 0 5.178 5.178 0 0 0-1.84 1.85 5.045 5.045 0 0 0-.68 2.55 4.973 4.973 0 0 0 .68 2.53 5.178 5.178 0 0 0 1.85 1.84 5.045 5.045 0 0 0 2.55.68 4.946 4.946 0 0 0 2.53-.68 5.1 5.1 0 0 0 1.84-1.85 5 5 0 0 0 .68-2.53zM7.4 7.89a.37.37 0 0 0 .21.06.265.265 0 0 0 .18-.11l.19-.28a.252.252 0 0 0 .06-.2.274.274 0 0 0-.1-.18L6.27 5.97V2.54a.318.318 0 0 0-.08-.2.3.3 0 0 0-.2-.08h-.33a.3.3 0 0 0-.2.08.318.318 0 0 0-.08.2v3.75a.24.24 0 0 0 .12.22z" fill-rule="evenodd"/></symbol><symbol viewBox="0 0 47.25 36.755" id="credit-card" xmlns="http://www.w3.org/2000/svg"><path d="M43.32 0a3.923 3.923 0 0 1 3.94 3.937v28.878a3.91 3.91 0 0 1-3.94 3.93H3.94a3.893 3.893 0 0 1-3.93-3.93V3.937A3.906 3.906 0 0 1 3.94 0h39.38zM3.94 2.625a1.281 1.281 0 0 0-.94.369 1.263 1.263 0 0 0-.37.943v3.938h42V3.937a1.265 1.265 0 0 0-1.31-1.312H3.94zm39.38 31.5a1.25 1.25 0 0 0 .94-.37 1.266 1.266 0 0 0 .37-.94v-17.07h-42v17.07a1.266 1.266 0 0 0 1.31 1.31h39.38zm-27.56-6.89a.99.99 0 0 0-.99-.99h-5.9a.951.951 0 0 0-.7.29.967.967 0 0 0-.29.7v.66a.99.99 0 0 0 .99.98h5.9a.967.967 0 0 0 .7-.29.944.944 0 0 0 .29-.69v-.66zm15.75 0a.967.967 0 0 0-.29-.7.951.951 0 0 0-.7-.29H19.36a.944.944 0 0 0-.69.29.967.967 0 0 0-.29.7v.66a.99.99 0 0 0 .98.98h11.16a.99.99 0 0 0 .99-.98v-.66z" fill-rule="evenodd"/></symbol><symbol viewBox="0 0 11 11" id="filter" xmlns="http://www.w3.org/2000/svg"><path d="M10.3.006a.666.666 0 0 1 .5.2.675.675 0 0 1 .19.484.708.708 0 0 1-.19.494l-3.93 3.91v5.221a.646.646 0 0 1-.2.473.713.713 0 0 1-.46.214.609.609 0 0 1-.48-.172l-1.38-1.2a.619.619 0 0 1-.23-.515V5.096L.18 1.186A.757.757 0 0 1-.01.692.72.72 0 0 1 .18.208a.666.666 0 0 1 .5-.2h9.62zM6.18 4.819L10.3.694H.68L4.8 4.819v4.3l1.38 1.2v-5.5z" fill-rule="evenodd"/></symbol><symbol viewBox="0 0 22.78 17.72" id="map" xmlns="http://www.w3.org/2000/svg"><path d="M22.14-.01a.633.633 0 0 1 .43.18.591.591 0 0 1 .2.45V14.3a1.2 1.2 0 0 1-.22.71 1.4 1.4 0 0 1-.57.48l-6.01 2.09a2.66 2.66 0 0 1-1.58 0l-6.8-2.41-6.72 2.49a.672.672 0 0 1-.24.04.615.615 0 0 1-.43-.18.591.591 0 0 1-.2-.45V3.39a1.2 1.2 0 0 1 .22-.71 1.34 1.34 0 0 1 .57-.48L6.8.11a2.66 2.66 0 0 1 1.58 0l6.8 2.41L21.9.03a.672.672 0 0 1 .24-.04zM1.23 3.39l.03 12.77 5.7-2.1V1.41zm6.99 10.67l6.33 2.22V3.63L8.22 1.41v12.65zm7.59 2.22l5.73-1.98-.04-12.77-5.69 2.1v12.65z" fill-rule="evenodd" opacity=".8"/></symbol><symbol viewBox="0 0 11.3 1.406" id="minus" xmlns="http://www.w3.org/2000/svg"><path d="M11-.016a.336.336 0 0 1 .2.073c0 .049.1.1.1.161v.938c0 .058-.1.112-.1.161a.336.336 0 0 1-.2.073H.2a.133.133 0 0 1-.1-.073.147.147 0 0 1-.1-.161V.218A.147.147 0 0 1 .1.057a.133.133 0 0 1 .1-.073H11z" fill-rule="evenodd"/></symbol><symbol viewBox="0 0 52.5 36.755" id="money-bill-wave-alt" xmlns="http://www.w3.org/2000/svg"><path d="M26.26 9.187a6.842 6.842 0 0 1 3.93 1.228 8.556 8.556 0 0 1 2.87 3.37 10.38 10.38 0 0 1 0 9.18 8.556 8.556 0 0 1-2.87 3.37 6.909 6.909 0 0 1-7.87 0 8.637 8.637 0 0 1-2.87-3.37 10.38 10.38 0 0 1 0-9.18 8.637 8.637 0 0 1 2.87-3.37 6.85 6.85 0 0 1 3.94-1.228zm0 15.748a4.62 4.62 0 0 0 3.69-1.93 7.666 7.666 0 0 0 0-9.27 4.515 4.515 0 0 0-7.39 0 7.705 7.705 0 0 0 0 9.27 4.624 4.624 0 0 0 3.7 1.93zm24.69-23.13a2.571 2.571 0 0 1 1.15.984 2.755 2.755 0 0 1 .41 1.476v26a2.481 2.481 0 0 1-.78 1.89 2.617 2.617 0 0 1-1.85.74 6.206 6.206 0 0 1-1.48-.33 26.8 26.8 0 0 0-6.97-.9 44.542 44.542 0 0 0-7.63.74c-1.64.33-4.15.91-7.54 1.76s-5.91 1.44-7.55 1.76a40.588 40.588 0 0 1-7.63.82 24.683 24.683 0 0 1-9.52-1.8 2.545 2.545 0 0 1-1.14-.98 2.683 2.683 0 0 1-.41-1.48v-26a2.51 2.51 0 0 1 .77-1.886 2.6 2.6 0 0 1 1.85-.739 6.141 6.141 0 0 1 1.48.329 26.762 26.762 0 0 0 6.97.9 45.153 45.153 0 0 0 7.63-.739q2.46-.492 7.55-1.763T33.8.823a40.925 40.925 0 0 1 7.63-.82 24.574 24.574 0 0 1 9.52 1.802zm-1.89 28.22l.82.24v-26a21.382 21.382 0 0 0-8.45-1.64 38.979 38.979 0 0 0-7.13.738q-2.475.492-7.39 1.723-5.16 1.313-7.79 1.8a44.535 44.535 0 0 1-8.04.82 29.424 29.424 0 0 1-7.63-.985l-.82-.246v26a21.053 21.053 0 0 0 8.45 1.64 39.361 39.361 0 0 0 7.14-.74q2.46-.5 7.38-1.72 5.16-1.32 7.79-1.81a45.264 45.264 0 0 1 8.04-.82 29.3 29.3 0 0 1 7.63 1z" fill-rule="evenodd"/></symbol><symbol viewBox="0 0 21.44 12" id="nav-next" xmlns="http://www.w3.org/2000/svg"><path data-name="nav копия" d="M14.88.19a.543.543 0 0 1 .82 0l5.55 5.438a.465.465 0 0 1 0 .75l-5.55 5.437a.541.541 0 0 1-.82 0l-.33-.328a.436.436 0 0 1-.19-.375.568.568 0 0 1 .19-.422l4.02-3.891H.58a.561.561 0 0 1-.41-.164.535.535 0 0 1-.16-.4v-.469a.535.535 0 0 1 .16-.4.561.561 0 0 1 .41-.164h17.99l-4.02-3.891a.566.566 0 0 1-.19-.422.436.436 0 0 1 .19-.375z" fill-rule="evenodd"/></symbol><symbol viewBox="0 0 21.44 12" id="nav-prev" xmlns="http://www.w3.org/2000/svg"><path d="M6.55 11.815a.53.53 0 0 1-.81 0L.19 6.378a.465.465 0 0 1 0-.75L5.74.19a.532.532 0 0 1 .81 0l.34.328a.461.461 0 0 1 .19.375.6.6 0 0 1-.19.422L2.87 5.206h17.99a.539.539 0 0 1 .4.164.544.544 0 0 1 .17.4v.469a.544.544 0 0 1-.17.4.539.539 0 0 1-.4.164H2.87l4.02 3.891a.607.607 0 0 1 .19.422.461.461 0 0 1-.19.375z" fill-rule="evenodd"/></symbol><symbol viewBox="0 0 10 10" id="pencil-alt" xmlns="http://www.w3.org/2000/svg"><path d="M9.7 2.77a1.189 1.189 0 0 0 0-1.32L8.5.27A.958.958 0 0 0 7.8 0a.9.9 0 0 0-.6.27l-.9.9a.162.162 0 0 0-.1.18.13.13 0 0 0 .1.15l2.1 2.17a.29.29 0 0 0 .4 0zm-4.2-.82a.19.19 0 0 1 .2-.08.143.143 0 0 1 .1.08L8 4.12a.742.742 0 0 1 .1.16c0 .06-.1.12-.1.17L2.9 9.57.5 10a.374.374 0 0 1-.4-.14.641.641 0 0 1-.2-.41l.5-2.38zM2.4 6.64a.19.19 0 0 0 .2.08 1.417 1.417 0 0 0 .2-.08l3-3.01v-.39a1.417 1.417 0 0 0-.2-.08.19.19 0 0 0-.2.08l-3 3.01a.181.181 0 0 0-.1.2.174.174 0 0 0 .1.19zm-.7 1.64v-.94H1L.7 8.59l.7.63 1.2-.24v-.7h-.9z" fill-rule="evenodd"/></symbol><symbol viewBox="0 0 11.3 11.25" id="plus" xmlns="http://www.w3.org/2000/svg"><path d="M11 4.922a.336.336 0 0 1 .2.073c0 .049.1.1.1.161v.938c0 .058-.1.112-.1.161a.336.336 0 0 1-.2.073H6.3v4.849a.336.336 0 0 1-.2.073h-.9a.191.191 0 0 1-.2-.073.147.147 0 0 1-.1-.161V6.328H.2a.133.133 0 0 1-.1-.073.147.147 0 0 1-.1-.161v-.938a.147.147 0 0 1 .1-.161.133.133 0 0 1 .1-.073h4.7V.234A.147.147 0 0 1 5 .073.191.191 0 0 1 5.2 0h.9a.336.336 0 0 1 .2.073v4.849H11z" fill-rule="evenodd"/></symbol><symbol viewBox="0 0 14 12.25" id="random" xmlns="http://www.w3.org/2000/svg"><path d="M13.797 10.06a.655.655 0 0 0 .192-.47.617.617 0 0 0-.192-.46l-2.16-1.94a.634.634 0 0 0-.466-.2.7.7 0 0 0-.478.18.606.606 0 0 0-.205.48v1.31h-.332l-2.16-2.38L6.93 7.73l2.46 2.66a.344.344 0 0 0 .247.1h.847v1.1a.593.593 0 0 0 .205.46.669.669 0 0 0 .478.19.625.625 0 0 0 .466-.19zM.317 3.28a.338.338 0 0 1-.233-.1.306.306 0 0 1-.1-.23v-.88a.306.306 0 0 1 .1-.23.338.338 0 0 1 .233-.1h3.039a.353.353 0 0 1 .246.11l2.46 2.66-1.038 1.12-2.188-2.35H.321zm13.48-1.15a.617.617 0 0 1 .192.46.655.655 0 0 1-.192.47l-2.16 1.99a.625.625 0 0 1-.466.19.669.669 0 0 1-.478-.19.593.593 0 0 1-.205-.46V3.28h-.332l-6.562 7.11a.341.341 0 0 1-.246.1H.313a.329.329 0 0 1-.233-.09.306.306 0 0 1-.1-.23v-.88a.306.306 0 0 1 .1-.23.338.338 0 0 1 .233-.1h2.515L9.39 1.85a.355.355 0 0 1 .247-.11h.847V.65a.593.593 0 0 1 .205-.46.679.679 0 0 1 .478-.2.634.634 0 0 1 .466.2z" fill-rule="evenodd"/></symbol><symbol viewBox="0 0 14 14" id="search" xmlns="http://www.w3.org/2000/svg"><path d="M13.92 12.824a.316.316 0 0 1 .08.219.43.43 0 0 1-.08.246l-.63.6a.345.345 0 0 1-.25.109.27.27 0 0 1-.22-.109L9.49 10.58a.331.331 0 0 1-.08-.219V9.98a5.87 5.87 0 0 1-1.73 1.026 5.448 5.448 0 0 1-1.99.369 5.536 5.536 0 0 1-2.86-.766A5.694 5.694 0 0 1 .77 8.545a5.687 5.687 0 0 1 0-5.715A5.694 5.694 0 0 1 2.83.766 5.536 5.536 0 0 1 5.69 0a5.475 5.475 0 0 1 2.85.766 5.721 5.721 0 0 1 2.07 2.064 5.532 5.532 0 0 1 .77 2.858 5.634 5.634 0 0 1-.37 2A5.909 5.909 0 0 1 9.98 9.41h.38a.3.3 0 0 1 .22.082zm-8.23-2.761a4.348 4.348 0 0 0 3.78-2.188 4.35 4.35 0 0 0 0-4.375 4.344 4.344 0 0 0-3.78-2.187A4.259 4.259 0 0 0 3.5 1.9a4.369 4.369 0 0 0-1.6 1.6 4.35 4.35 0 0 0 0 4.375 4.369 4.369 0 0 0 1.6 1.6 4.26 4.26 0 0 0 2.19.588z" fill-rule="evenodd"/></symbol><symbol viewBox="0 0 27.5 24.407" id="shopping-cart" xmlns="http://www.w3.org/2000/svg"><path d="M26.34 3.044a1.1 1.1 0 0 1 .88.429 1.015 1.015 0 0 1 .22.954l-2.06 9.922a1.164 1.164 0 0 1-.4.645 1.054 1.054 0 0 1-.69.262H8.45l.57 3.053h14.12a1.178 1.178 0 0 1 .74.238 1.12 1.12 0 0 1 .41.62 3 3 0 0 1 .9 2.195 3.05 3.05 0 1 1-6.1 0 2.89 2.89 0 0 1 .43-1.527h-6.97a2.89 2.89 0 0 1 .43 1.527 3.068 3.068 0 0 1-5.22 2.171 3.035 3.035 0 0 1-.07-4.222L4.35 1.517H.58A.575.575 0 0 1 0 .944V.563a.574.574 0 0 1 .58-.572h4.05a1.089 1.089 0 0 1 .74.262 1.248 1.248 0 0 1 .41.691l.38 2.1h20.18zM11.45 21.362a1.525 1.525 0 1 0-2.6 1.074 1.488 1.488 0 0 0 1.08.453 1.542 1.542 0 0 0 1.52-1.527zm10.69 1.527a1.466 1.466 0 0 0 1.07-.453 1.483 1.483 0 0 0 0-2.147 1.488 1.488 0 0 0-2.14 0 1.483 1.483 0 0 0 0 2.147 1.466 1.466 0 0 0 1.07.453zm1.81-9.16l1.91-9.159H6.44l1.72 9.159h15.79z" fill-rule="evenodd"/></symbol><symbol viewBox="0 0 24.18 18.12" id="sign-out" xmlns="http://www.w3.org/2000/svg"><path d="M2.26-.01A2.27 2.27 0 0 0-.01 2.26v13.6a2.27 2.27 0 0 0 2.27 2.27H8.5a.535.535 0 0 0 .4-.16.566.566 0 0 0 .17-.41v-.37a.583.583 0 0 0-.17-.41.576.576 0 0 0-.4-.16H2.26a.731.731 0 0 1-.54-.21.754.754 0 0 1-.21-.55V2.26a.754.754 0 0 1 .21-.55.731.731 0 0 1 .54-.21H8.5a.581.581 0 0 0 .57-.57V.55a.561.561 0 0 0-.17-.4.535.535 0 0 0-.4-.16H2.26zm13.18.9a.622.622 0 0 1 .81 0l7.79 7.74a.682.682 0 0 1 .15.43.5.5 0 0 1-.15.38l-7.79 7.79a.5.5 0 0 1-.38.15.627.627 0 0 1-.43-.19l-.33-.33a.474.474 0 0 1-.19-.38.627.627 0 0 1 .19-.43l6.24-6.19H8.12a.535.535 0 0 1-.4-.16.561.561 0 0 1-.17-.4v-.48a.561.561 0 0 1 .17-.4.535.535 0 0 1 .4-.16h13.23l-6.24-6.19a.627.627 0 0 1-.19-.43.474.474 0 0 1 .19-.38z" fill-rule="evenodd" opacity=".8"/></symbol><symbol viewBox="0 0 8.75 13.12" id="sort" xmlns="http://www.w3.org/2000/svg"><path d="M7.43 7.43a1.3 1.3 0 0 1 1.32 1.3 1.382 1.382 0 0 1-.38.95L5.3 12.74a1.267 1.267 0 0 1-.93.38 1.3 1.3 0 0 1-.93-.38L.38 9.68a1.34 1.34 0 0 1 .01-1.86 1.232 1.232 0 0 1 .92-.39h6.12zm-3.06 4.38l3.06-3.06H1.31zM1.31 5.68a1.222 1.222 0 0 1-.94-.38A1.245 1.245 0 0 1 0 4.39a1.382 1.382 0 0 1 .38-.95L3.44.38A1.26 1.26 0 0 1 4.37 0a1.23 1.23 0 0 1 .93.38l3.07 3.06a1.318 1.318 0 0 1 .36.95 1.255 1.255 0 0 1-.38.91 1.193 1.193 0 0 1-.92.38H1.31zm3.06-4.37L1.31 4.37h6.12z" fill-rule="evenodd"/></symbol><symbol viewBox="0 0 14 13.56" id="sync" xmlns="http://www.w3.org/2000/svg"><path d="M13.67.01a.342.342 0 0 1 .33.33v5.25a.342.342 0 0 1-.33.33H8.42a.29.29 0 0 1-.23-.1.326.326 0 0 1-.1-.23v-.77a.345.345 0 0 1 .1-.23.317.317 0 0 1 .23-.09l3.47.08a5.376 5.376 0 0 0-1.96-2.29A5.289 5.289 0 0 0 7 1.43 5.335 5.335 0 0 0 2.77 3.5a5.432 5.432 0 0 0-1.02 2.14.228.228 0 0 1-.1.21.372.372 0 0 1-.2.07H.66a.293.293 0 0 1-.26-.13.28.28 0 0 1-.07-.26A6.884 6.884 0 0 1 3.95.74a6.775 6.775 0 0 1 6.29.09 6.88 6.88 0 0 1 2.42 2.22L12.58.34a.317.317 0 0 1 .09-.23.31.31 0 0 1 .24-.1h.76zm-.33 7.66a.309.309 0 0 1 .26.12.286.286 0 0 1 .07.26 6.67 6.67 0 0 1-1.26 2.82 6.748 6.748 0 0 1-2.36 1.98 6.815 6.815 0 0 1-6.29-.1 6.762 6.762 0 0 1-2.42-2.21l.08 2.71a.334.334 0 0 1-.09.23.358.358 0 0 1-.24.09H.33a.317.317 0 0 1-.23-.09.3.3 0 0 1-.1-.23V8a.31.31 0 0 1 .1-.24.317.317 0 0 1 .23-.09h5.25a.317.317 0 0 1 .23.09.349.349 0 0 1 .1.24v.76a.326.326 0 0 1-.1.23.29.29 0 0 1-.23.1L2.1 9.01a5.382 5.382 0 0 0 1.97 2.28 5.424 5.424 0 0 0 5.29.32 5.5 5.5 0 0 0 2.89-3.67.212.212 0 0 1 .1-.2.306.306 0 0 1 .2-.07h.79z" fill-rule="evenodd"/></symbol><symbol viewBox="0 0 17.22 15" id="th" xmlns="http://www.w3.org/2000/svg"><path d="M0 1.61A1.6 1.6 0 0 1 1.61 0h14a1.594 1.594 0 0 1 1.15.47 1.555 1.555 0 0 1 .47 1.14v11.78a1.555 1.555 0 0 1-.47 1.14 1.594 1.594 0 0 1-1.15.47h-14A1.6 1.6 0 0 1 0 13.39V1.61zm15.88 7.5V5.89h-3.93v3.22h3.93zm-5.28 0V5.89H6.63v3.22h3.97zm0 1.34H6.63v3.21h3.97v-3.21zM1.34 5.89v3.22h3.94V5.89H1.34zm5.29-1.34h3.97V1.34H6.63v3.21zM5.28 1.34H1.75a.4.4 0 0 0-.29.12.363.363 0 0 0-.12.28v2.81h3.94V1.34zm-3.94 9.11v2.81a.378.378 0 0 0 .12.28.4.4 0 0 0 .29.12h3.53v-3.21H1.34zm10.61 3.21h3.93v-3.21h-3.93v3.21zm3.93-9.11V1.34h-3.93v3.21h3.93z" fill-rule="evenodd"/></symbol><symbol viewBox="0 0 17.22 15" id="th-list" xmlns="http://www.w3.org/2000/svg"><path data-name="th-list" d="M-.01 1.61A1.517 1.517 0 0 1 .46.47 1.555 1.555 0 0 1 1.6 0h14a1.594 1.594 0 0 1 1.15.47 1.555 1.555 0 0 1 .47 1.14v11.78a1.555 1.555 0 0 1-.47 1.14 1.594 1.594 0 0 1-1.15.47h-14a1.555 1.555 0 0 1-1.14-.47 1.517 1.517 0 0 1-.47-1.14V1.61zm15.88 7.5V5.89H6.62v3.22h9.25zm0 1.34H6.62v3.21h8.85a.363.363 0 0 0 .28-.12.378.378 0 0 0 .12-.28v-2.81zM1.33 5.89v3.22h3.94V5.89H1.33zm5.29-1.34h9.25V1.74a.41.41 0 0 0-.4-.4H6.62v3.21zM5.27 1.34H1.74a.385.385 0 0 0-.29.12.363.363 0 0 0-.12.28v2.81h3.94V1.34zm-3.94 9.11v2.81a.378.378 0 0 0 .12.28.385.385 0 0 0 .29.12h3.53v-3.21H1.33z" fill-rule="evenodd"/></symbol><symbol viewBox="0 0 11.63 11.63" id="times-circle" xmlns="http://www.w3.org/2000/svg"><path d="M5.83.01a5.571 5.571 0 0 1 2.9.79 5.824 5.824 0 0 1 2.12 2.12 5.736 5.736 0 0 1 0 5.81 5.824 5.824 0 0 1-2.12 2.12 5.736 5.736 0 0 1-5.81 0A5.824 5.824 0 0 1 .8 8.73a5.736 5.736 0 0 1 0-5.81A5.824 5.824 0 0 1 2.92.8 5.58 5.58 0 0 1 5.83.01zm0 10.88a4.956 4.956 0 0 0 2.54-.68 5.1 5.1 0 0 0 1.84-1.85 5.084 5.084 0 0 0 0-5.08 5.1 5.1 0 0 0-1.85-1.84 5.084 5.084 0 0 0-5.08 0 5.178 5.178 0 0 0-1.84 1.85 5.045 5.045 0 0 0-.68 2.55 4.973 4.973 0 0 0 .68 2.53 5.178 5.178 0 0 0 1.85 1.84 5.036 5.036 0 0 0 2.54.68zm2.22-6.68A.314.314 0 0 0 8.12 4a.249.249 0 0 0-.07-.19l-.21-.21a.249.249 0 0 0-.19-.07.352.352 0 0 0-.21.07L5.83 5.22 4.21 3.6A.314.314 0 0 0 4 3.53a.249.249 0 0 0-.19.07l-.21.21a.249.249 0 0 0-.07.19.314.314 0 0 0 .07.21l1.64 1.62L3.6 7.44a.332.332 0 0 0-.07.21.249.249 0 0 0 .07.19l.21.21a.249.249 0 0 0 .19.07.314.314 0 0 0 .21-.07l1.62-1.64 1.61 1.64a.352.352 0 0 0 .21.07.249.249 0 0 0 .19-.07l.21-.21a.249.249 0 0 0 .07-.19.332.332 0 0 0-.07-.21L6.44 5.83z" fill-rule="evenodd"/></symbol><symbol viewBox="0 0 14 16" id="trash-alt" xmlns="http://www.w3.org/2000/svg"><path d="M10.51 2h2.75a.74.74 0 0 1 .53.219.748.748 0 0 1 .22.531v.063a.164.164 0 0 1-.07.125.172.172 0 0 1-.12.062h-.81v11.5a1.5 1.5 0 0 1-1.5 1.5h-9a1.474 1.474 0 0 1-1.07-.437 1.447 1.447 0 0 1-.43-1.063V3H.19a.172.172 0 0 1-.12-.062.185.185 0 0 1-.06-.125V2.75A.749.749 0 0 1 .76 2h2.75L4.57.594A1.4 1.4 0 0 1 5.76 0h2.5a1.382 1.382 0 0 1 1.18.594zM5.76 1a.5.5 0 0 0-.41.188L4.76 2h4.5l-.6-.812A.5.5 0 0 0 8.26 1h-2.5zm6.25 13.5V3h-10v11.5a.461.461 0 0 0 .14.359.475.475 0 0 0 .36.141h9a.507.507 0 0 0 .36-.141.5.5 0 0 0 .14-.359zm-5.5-1.375a.338.338 0 0 0 .11.266.35.35 0 0 0 .26.109h.25a.374.374 0 0 0 .38-.375v-8.25a.374.374 0 0 0-.38-.375h-.25a.35.35 0 0 0-.26.109.338.338 0 0 0-.11.266v8.25zm-2.5 0a.338.338 0 0 0 .11.266.35.35 0 0 0 .26.109h.25a.374.374 0 0 0 .38-.375v-8.25a.374.374 0 0 0-.38-.375h-.25a.35.35 0 0 0-.26.109.338.338 0 0 0-.11.266v8.25zm5 0a.338.338 0 0 0 .11.266.35.35 0 0 0 .26.109h.25a.374.374 0 0 0 .38-.375v-8.25a.374.374 0 0 0-.38-.375h-.25a.35.35 0 0 0-.26.109.338.338 0 0 0-.11.266v8.25z" fill-rule="evenodd"/></symbol><symbol viewBox="0 0 22.5 18" id="truck" xmlns="http://www.w3.org/2000/svg"><path d="M21.94 12.926a.529.529 0 0 1 .56.562v.568a.531.531 0 0 1-.56.563h-1.68a3.38 3.38 0 0 1-6.76 0H9a3.375 3.375 0 1 1-6.75 0h-.28A1.982 1.982 0 0 1 0 12.65V1.956A1.98 1.98 0 0 1 1.97-.012h10.69a1.9 1.9 0 0 1 1.39.58 1.879 1.879 0 0 1 .58 1.388v1.407h1.27a2.436 2.436 0 0 1 1.79.738l2.95 2.953a2.451 2.451 0 0 1 .74 1.793v4.078h.56zM5.63 16.301a1.6 1.6 0 0 0 1.19-.492 1.679 1.679 0 0 0 0-2.391 1.6 1.6 0 0 0-1.19-.492 1.639 1.639 0 0 0-1.2.492 1.7 1.7 0 0 0 0 2.391 1.639 1.639 0 0 0 1.2.492zm7.31-3.375V1.956a.266.266 0 0 0-.09-.193.247.247 0 0 0-.19-.088H1.97a.263.263 0 0 0-.19.088.266.266 0 0 0-.09.193v10.688a.308.308 0 0 0 .28.281h.74a3.533 3.533 0 0 1 1.23-1.23 3.353 3.353 0 0 1 3.38 0 3.533 3.533 0 0 1 1.23 1.23h4.39zm1.69-7.875v2.813h4.43l-2.57-2.567a.8.8 0 0 0-.59-.246h-1.27zm2.25 11.25a1.639 1.639 0 0 0 1.2-.492 1.7 1.7 0 0 0 0-2.391 1.709 1.709 0 0 0-2.4 0 1.7 1.7 0 0 0 0 2.391 1.639 1.639 0 0 0 1.2.492zm2.81-3.55v-3.2h-5.06v2.567a3.37 3.37 0 0 1 3.87-.475 3.246 3.246 0 0 1 1.19 1.113z" fill-rule="evenodd"/></symbol><symbol viewBox="0 0 21.44 24.5" id="user" xmlns="http://www.w3.org/2000/svg"><path d="M15.03 13.78a6.291 6.291 0 0 1 3.2.861 6.415 6.415 0 0 1 2.35 2.345 6.318 6.318 0 0 1 .86 3.206v2.01a2.288 2.288 0 0 1-2.3 2.3H2.3a2.288 2.288 0 0 1-2.3-2.3v-2.01a6.318 6.318 0 0 1 .86-3.206 6.415 6.415 0 0 1 2.35-2.345 6.265 6.265 0 0 1 3.2-.861 5.43 5.43 0 0 1 1.63.335c.45.128.81.224 1.1.288a8.8 8.8 0 0 0 3.16 0c.29-.064.65-.16 1.1-.288a5.43 5.43 0 0 1 1.63-.335zm4.88 8.422v-2.01a4.91 4.91 0 0 0-4.88-4.881 4.743 4.743 0 0 0-1.2.24 9.457 9.457 0 0 1-6.22 0 4.743 4.743 0 0 0-1.2-.24 4.91 4.91 0 0 0-4.88 4.881v2.01a.745.745 0 0 0 .77.766h16.84a.743.743 0 0 0 .55-.216.762.762 0 0 0 .22-.55zm-9.19-9.952a6.077 6.077 0 0 1-3.09-.813 5.942 5.942 0 0 1-2.22-2.225 6.219 6.219 0 0 1 0-6.173A5.934 5.934 0 0 1 7.63.814a6.279 6.279 0 0 1 6.18 0 5.934 5.934 0 0 1 2.22 2.225 6.286 6.286 0 0 1 0 6.173 5.942 5.942 0 0 1-2.22 2.225 6.1 6.1 0 0 1-3.09.813zm0-10.719a4.577 4.577 0 1 0 3.25 1.341 4.408 4.408 0 0 0-3.25-1.342z" fill-rule="evenodd"/></symbol></svg>